<svg width="472" height="1318" viewBox="0 0 472 1318" fill="none" xmlns="http://www.w3.org/2000/svg"><path d="M0 16.25h10v1.25H0v-1.25zm11.25 0h10v1.25h-10v-1.25zm11.25 0h10v1.25h-10v-1.25zm11.25 0h10v1.25h-10v-1.25zm11.25 0h10v1.25H45v-1.25zm11.25 0h10v1.25h-10v-1.25zm11.25 0h10v1.25h-10v-1.25zm11.25 0h10v1.25h-10v-1.25zm11.25 0h10v1.25H90v-1.25zm11.25 0h10v1.25h-10v-1.25zm11.25 0h10v1.25h-10v-1.25zM130 0h2.5v20H130V0zm-6.25 8.75h2.5V0h2.5v20h-2.5V10h-2.5V8.75zM141.25 0h2.5v20h-2.5V0zM135 8.75h2.5V0h2.5v20h-2.5V10H135V8.75zM152.5 0h2.5v20h-2.5V0zm-6.25 8.75h2.5V0h2.5v20h-2.5V10h-2.5V8.75zM163.75 0h2.5v20h-2.5V0zm-6.25 8.75h2.5V0h2.5v20H160V10h-2.5V8.75zM175 0h2.5v20H175V0zm-6.25 8.75h2.5V0h2.5v20h-2.5V10h-2.5V8.75zM186.25 0h2.5v20h-2.5V0zM180 8.75h2.5V0h2.5v20h-2.5V10H180V8.75zM197.5 0h2.5v20h-2.5V0zm-6.25 8.75h2.5V0h2.5v20h-2.5V10h-2.5V8.75zM208.75 0h2.5v20h-2.5V0zm-6.25 8.75h2.5V0h2.5v20H205V10h-2.5V8.75zM220 0h2.5v20H220V0zm-6.25 8.75h2.5V0h2.5v20h-2.5V10h-2.5V8.75zM231.25 0h2.5v20h-2.5V0zM225 8.75h2.5V0h2.5v20h-2.5V10H225V8.75zM242.5 0h2.5v20h-2.5V0zm-6.25 8.75h2.5V0h2.5v20h-2.5V10h-2.5V8.75zM253.75 0h2.5v20h-2.5V0zm-6.25 8.75h2.5V0h2.5v20H250V10h-2.5V8.75zM265 0h2.5v20H265V0zm-6.25 8.75h2.5V0h2.5v20h-2.5V10h-2.5V8.75zM276.25 0h2.5v20h-2.5V0zM270 8.75h2.5V0h2.5v20h-2.5V10H270V8.75zM287.5 0h2.5v20h-2.5V0zm-6.25 8.75h2.5V0h2.5v20h-2.5V10h-2.5V8.75zM298.75 0h2.5v20h-2.5V0zm-6.25 8.75h2.5V0h2.5v20H295V10h-2.5V8.75zM310 0h2.5v20H310V0zm-6.25 8.75h2.5V0h2.5v20h-2.5V10h-2.5V8.75zM321.25 0h2.5v20h-2.5V0zM315 8.75h2.5V0h2.5v20h-2.5V10H315V8.75zM332.5 0h2.5v20h-2.5V0zm-6.25 8.75h2.5V0h2.5v20h-2.5V10h-2.5V8.75zM0 38.25h10v1.25H0v-1.25zm11.25 0h10v1.25h-10v-1.25zm11.25 0h10v1.25h-10v-1.25zm11.25 0h10v1.25h-10v-1.25zm11.25 0h10v1.25H45v-1.25zm11.25 0h10v1.25h-10v-1.25zm11.25 0h10v1.25h-10v-1.25zm11.25 0h10v1.25h-10v-1.25zM96.25 22h2.5v20h-2.5V22zM90 30.75h2.5V22H95v20h-2.5V32H90v-1.25zM107.5 22h2.5v20h-2.5V22zm-6.25 8.75h2.5V22h2.5v20h-2.5V32h-2.5v-1.25zm17.5-8.75h2.5v20h-2.5V22zm-6.25 8.75h2.5V22h2.5v20H115V32h-2.5v-1.25zM130 22h2.5v20H130V22zm-6.25 8.75h2.5V22h2.5v20h-2.5V32h-2.5v-1.25zm17.5-8.75h2.5v20h-2.5V22zM135 30.75h2.5V22h2.5v20h-2.5V32H135v-1.25zM152.5 22h2.5v20h-2.5V22zm-6.25 8.75h2.5V22h2.5v20h-2.5V32h-2.5v-1.25zm17.5-8.75h2.5v20h-2.5V22zm-6.25 8.75h2.5V22h2.5v20H160V32h-2.5v-1.25zM175 22h2.5v20H175V22zm-6.25 8.75h2.5V22h2.5v20h-2.5V32h-2.5v-1.25zm17.5-8.75h2.5v20h-2.5V22zM180 30.75h2.5V22h2.5v20h-2.5V32H180v-1.25zM197.5 22h2.5v20h-2.5V22zm-6.25 8.75h2.5V22h2.5v20h-2.5V32h-2.5v-1.25zm17.5-8.75h2.5v20h-2.5V22zm-6.25 8.75h2.5V22h2.5v20H205V32h-2.5v-1.25zM220 22h2.5v20H220V22zm-6.25 8.75h2.5V22h2.5v20h-2.5V32h-2.5v-1.25zm17.5-8.75h2.5v20h-2.5V22zM225 30.75h2.5V22h2.5v20h-2.5V32H225v-1.25zM242.5 22h2.5v20h-2.5V22zm-6.25 8.75h2.5V22h2.5v20h-2.5V32h-2.5v-1.25zm17.5-8.75h2.5v20h-2.5V22zm-6.25 8.75h2.5V22h2.5v20H250V32h-2.5v-1.25zM265 22h2.5v20H265V22zm-6.25 8.75h2.5V22h2.5v20h-2.5V32h-2.5v-1.25zm17.5-8.75h2.5v20h-2.5V22zM270 30.75h2.5V22h2.5v20h-2.5V32H270v-1.25zM287.5 22h2.5v20h-2.5V22zm-6.25 8.75h2.5V22h2.5v20h-2.5V32h-2.5v-1.25zm17.5-8.75h2.5v20h-2.5V22zm-6.25 8.75h2.5V22h2.5v20H295V32h-2.5v-1.25zM310 22h2.5v20H310V22zm-6.25 8.75h2.5V22h2.5v20h-2.5V32h-2.5v-1.25zm17.5-8.75h2.5v20h-2.5V22zM315 30.75h2.5V22h2.5v20h-2.5V32H315v-1.25zM332.5 22h2.5v20h-2.5V22zm-6.25 8.75h2.5V22h2.5v20h-2.5V32h-2.5v-1.25zm17.5-8.75h2.5v20h-2.5V22zm-6.25 8.75h2.5V22h2.5v20H340V32h-2.5v-1.25zM355 22h2.5v20H355V22zm-6.25 8.75h2.5V22h2.5v20h-2.5V32h-2.5v-1.25zm17.5-8.75h2.5v20h-2.5V22zM360 30.75h2.5V22h2.5v20h-2.5V32H360v-1.25zM377.5 22h2.5v20h-2.5V22zm-6.25 8.75h2.5V22h2.5v20h-2.5V32h-2.5v-1.25zM0 60.25h10v1.25H0v-1.25zm11.25 0h10v1.25h-10v-1.25zm11.25 0h10v1.25h-10v-1.25zm11.25 0h10v1.25h-10v-1.25zm11.25 0h10v1.25H45v-1.25zm11.25 0h10v1.25h-10v-1.25zm11.25 0h10v1.25h-10v-1.25zM85 44h2.5v20H85V44zm-6.25 8.75h2.5V44h2.5v20h-2.5V54h-2.5v-1.25zM96.25 44h2.5v20h-2.5V44zM90 52.75h2.5V44H95v20h-2.5V54H90v-1.25zM107.5 44h2.5v20h-2.5V44zm-6.25 8.75h2.5V44h2.5v20h-2.5V54h-2.5v-1.25zm17.5-8.75h2.5v20h-2.5V44zm-6.25 8.75h2.5V44h2.5v20H115V54h-2.5v-1.25zM130 44h2.5v20H130V44zm-6.25 8.75h2.5V44h2.5v20h-2.5V54h-2.5v-1.25zm17.5-8.75h2.5v20h-2.5V44zM135 52.75h2.5V44h2.5v20h-2.5V54H135v-1.25zM152.5 44h2.5v20h-2.5V44zm-6.25 8.75h2.5V44h2.5v20h-2.5V54h-2.5v-1.25zm17.5-8.75h2.5v20h-2.5V44zm-6.25 8.75h2.5V44h2.5v20H160V54h-2.5v-1.25zM175 44h2.5v20H175V44zm-6.25 8.75h2.5V44h2.5v20h-2.5V54h-2.5v-1.25zm17.5-8.75h2.5v20h-2.5V44zM180 52.75h2.5V44h2.5v20h-2.5V54H180v-1.25zM197.5 44h2.5v20h-2.5V44zm-6.25 8.75h2.5V44h2.5v20h-2.5V54h-2.5v-1.25zm17.5-8.75h2.5v20h-2.5V44zm-6.25 8.75h2.5V44h2.5v20H205V54h-2.5v-1.25zM220 44h2.5v20H220V44zm-6.25 8.75h2.5V44h2.5v20h-2.5V54h-2.5v-1.25zm17.5-8.75h2.5v20h-2.5V44zM225 52.75h2.5V44h2.5v20h-2.5V54H225v-1.25zM242.5 44h2.5v20h-2.5V44zm-6.25 8.75h2.5V44h2.5v20h-2.5V54h-2.5v-1.25zm17.5-8.75h2.5v20h-2.5V44zm-6.25 8.75h2.5V44h2.5v20H250V54h-2.5v-1.25zM265 44h2.5v20H265V44zm-6.25 8.75h2.5V44h2.5v20h-2.5V54h-2.5v-1.25zm17.5-8.75h2.5v20h-2.5V44zM270 52.75h2.5V44h2.5v20h-2.5V54H270v-1.25zM287.5 44h2.5v20h-2.5V44zm-6.25 8.75h2.5V44h2.5v20h-2.5V54h-2.5v-1.25zm17.5-8.75h2.5v20h-2.5V44zm-6.25 8.75h2.5V44h2.5v20H295V54h-2.5v-1.25zM310 44h2.5v20H310V44zm-6.25 8.75h2.5V44h2.5v20h-2.5V54h-2.5v-1.25zm17.5-8.75h2.5v20h-2.5V44zM315 52.75h2.5V44h2.5v20h-2.5V54H315v-1.25zM332.5 44h2.5v20h-2.5V44zm-6.25 8.75h2.5V44h2.5v20h-2.5V54h-2.5v-1.25zm17.5-8.75h2.5v20h-2.5V44zm-6.25 8.75h2.5V44h2.5v20H340V54h-2.5v-1.25zM355 44h2.5v20H355V44zm-6.25 8.75h2.5V44h2.5v20h-2.5V54h-2.5v-1.25zm17.5-8.75h2.5v20h-2.5V44zM360 52.75h2.5V44h2.5v20h-2.5V54H360v-1.25zM377.5 44h2.5v20h-2.5V44zm-6.25 8.75h2.5V44h2.5v20h-2.5V54h-2.5v-1.25zm17.5-8.75h2.5v20h-2.5V44zm-6.25 8.75h2.5V44h2.5v20H385V54h-2.5v-1.25zM400 44h2.5v20H400V44zm-6.25 8.75h2.5V44h2.5v20h-2.5V54h-2.5v-1.25zm17.5-8.75h2.5v20h-2.5V44zM405 52.75h2.5V44h2.5v20h-2.5V54H405v-1.25zM422.5 44h2.5v20h-2.5V44zm-6.25 8.75h2.5V44h2.5v20h-2.5V54h-2.5v-1.25zM0 82.25h10v1.25H0v-1.25zm11.25 0h10v1.25h-10v-1.25zm11.25 0h10v1.25h-10v-1.25zm11.25 0h10v1.25h-10v-1.25zm11.25 0h10v1.25H45v-1.25zM62.5 66H65v20h-2.5V66zm-6.25 8.75h2.5V66h2.5v20h-2.5V76h-2.5v-1.25zM73.75 66h2.5v20h-2.5V66zm-6.25 8.75H70V66h2.5v20H70V76h-2.5v-1.25zM85 66h2.5v20H85V66zm-6.25 8.75h2.5V66h2.5v20h-2.5V76h-2.5v-1.25zM96.25 66h2.5v20h-2.5V66zM90 74.75h2.5V66H95v20h-2.5V76H90v-1.25zM107.5 66h2.5v20h-2.5V66zm-6.25 8.75h2.5V66h2.5v20h-2.5V76h-2.5v-1.25zm17.5-8.75h2.5v20h-2.5V66zm-6.25 8.75h2.5V66h2.5v20H115V76h-2.5v-1.25zM130 66h2.5v20H130V66zm-6.25 8.75h2.5V66h2.5v20h-2.5V76h-2.5v-1.25zm17.5-8.75h2.5v20h-2.5V66zM135 74.75h2.5V66h2.5v20h-2.5V76H135v-1.25zM152.5 66h2.5v20h-2.5V66zm-6.25 8.75h2.5V66h2.5v20h-2.5V76h-2.5v-1.25zm17.5-8.75h2.5v20h-2.5V66zm-6.25 8.75h2.5V66h2.5v20H160V76h-2.5v-1.25zM175 66h2.5v20H175V66zm-6.25 8.75h2.5V66h2.5v20h-2.5V76h-2.5v-1.25zm17.5-8.75h2.5v20h-2.5V66zM180 74.75h2.5V66h2.5v20h-2.5V76H180v-1.25zM197.5 66h2.5v20h-2.5V66zm-6.25 8.75h2.5V66h2.5v20h-2.5V76h-2.5v-1.25zm17.5-8.75h2.5v20h-2.5V66zm-6.25 8.75h2.5V66h2.5v20H205V76h-2.5v-1.25zM220 66h2.5v20H220V66zm-6.25 8.75h2.5V66h2.5v20h-2.5V76h-2.5v-1.25zm17.5-8.75h2.5v20h-2.5V66zM225 74.75h2.5V66h2.5v20h-2.5V76H225v-1.25zM242.5 66h2.5v20h-2.5V66zm-6.25 8.75h2.5V66h2.5v20h-2.5V76h-2.5v-1.25zm17.5-8.75h2.5v20h-2.5V66zm-6.25 8.75h2.5V66h2.5v20H250V76h-2.5v-1.25zM265 66h2.5v20H265V66zm-6.25 8.75h2.5V66h2.5v20h-2.5V76h-2.5v-1.25zm17.5-8.75h2.5v20h-2.5V66zM270 74.75h2.5V66h2.5v20h-2.5V76H270v-1.25zM287.5 66h2.5v20h-2.5V66zm-6.25 8.75h2.5V66h2.5v20h-2.5V76h-2.5v-1.25zm17.5-8.75h2.5v20h-2.5V66zm-6.25 8.75h2.5V66h2.5v20H295V76h-2.5v-1.25zM310 66h2.5v20H310V66zm-6.25 8.75h2.5V66h2.5v20h-2.5V76h-2.5v-1.25zm17.5-8.75h2.5v20h-2.5V66zM315 74.75h2.5V66h2.5v20h-2.5V76H315v-1.25zM332.5 66h2.5v20h-2.5V66zm-6.25 8.75h2.5V66h2.5v20h-2.5V76h-2.5v-1.25zm17.5-8.75h2.5v20h-2.5V66zm-6.25 8.75h2.5V66h2.5v20H340V76h-2.5v-1.25zM355 66h2.5v20H355V66zm-6.25 8.75h2.5V66h2.5v20h-2.5V76h-2.5v-1.25zm17.5-8.75h2.5v20h-2.5V66zM360 74.75h2.5V66h2.5v20h-2.5V76H360v-1.25zM377.5 66h2.5v20h-2.5V66zm-6.25 8.75h2.5V66h2.5v20h-2.5V76h-2.5v-1.25zm17.5-8.75h2.5v20h-2.5V66zm-6.25 8.75h2.5V66h2.5v20H385V76h-2.5v-1.25zM400 66h2.5v20H400V66zm-6.25 8.75h2.5V66h2.5v20h-2.5V76h-2.5v-1.25zm17.5-8.75h2.5v20h-2.5V66zM405 74.75h2.5V66h2.5v20h-2.5V76H405v-1.25zM422.5 66h2.5v20h-2.5V66zm-6.25 8.75h2.5V66h2.5v20h-2.5V76h-2.5v-1.25zm17.5-8.75h2.5v20h-2.5V66zm-6.25 8.75h2.5V66h2.5v20H430V76h-2.5v-1.25zM445 66h2.5v20H445V66zm-6.25 8.75h2.5V66h2.5v20h-2.5V76h-2.5v-1.25zM0 104.25h10v1.25H0v-1.25zm11.25 0h10v1.25h-10v-1.25zm11.25 0h10v1.25h-10v-1.25zm11.25 0h10v1.25h-10v-1.25zM51.25 88h2.5v20h-2.5V88zM45 96.75h2.5V88H50v20h-2.5V98H45v-1.25zM62.5 88H65v20h-2.5V88zm-6.25 8.75h2.5V88h2.5v20h-2.5V98h-2.5v-1.25zM73.75 88h2.5v20h-2.5V88zm-6.25 8.75H70V88h2.5v20H70V98h-2.5v-1.25zM85 88h2.5v20H85V88zm-6.25 8.75h2.5V88h2.5v20h-2.5V98h-2.5v-1.25zM96.25 88h2.5v20h-2.5V88zM90 96.75h2.5V88H95v20h-2.5V98H90v-1.25zM107.5 88h2.5v20h-2.5V88zm-6.25 8.75h2.5V88h2.5v20h-2.5V98h-2.5v-1.25zm17.5-8.75h2.5v20h-2.5V88zm-6.25 8.75h2.5V88h2.5v20H115V98h-2.5v-1.25zM130 88h2.5v20H130V88zm-6.25 8.75h2.5V88h2.5v20h-2.5V98h-2.5v-1.25zm17.5-8.75h2.5v20h-2.5V88zM135 96.75h2.5V88h2.5v20h-2.5V98H135v-1.25zM152.5 88h2.5v20h-2.5V88zm-6.25 8.75h2.5V88h2.5v20h-2.5V98h-2.5v-1.25zm17.5-8.75h2.5v20h-2.5V88zm-6.25 8.75h2.5V88h2.5v20H160V98h-2.5v-1.25zM175 88h2.5v20H175V88zm-6.25 8.75h2.5V88h2.5v20h-2.5V98h-2.5v-1.25zm17.5-8.75h2.5v20h-2.5V88zM180 96.75h2.5V88h2.5v20h-2.5V98H180v-1.25zM197.5 88h2.5v20h-2.5V88zm-6.25 8.75h2.5V88h2.5v20h-2.5V98h-2.5v-1.25zm17.5-8.75h2.5v20h-2.5V88zm-6.25 8.75h2.5V88h2.5v20H205V98h-2.5v-1.25zM220 88h2.5v20H220V88zm-6.25 8.75h2.5V88h2.5v20h-2.5V98h-2.5v-1.25zm17.5-8.75h2.5v20h-2.5V88zM225 96.75h2.5V88h2.5v20h-2.5V98H225v-1.25zM242.5 88h2.5v20h-2.5V88zm-6.25 8.75h2.5V88h2.5v20h-2.5V98h-2.5v-1.25zm17.5-8.75h2.5v20h-2.5V88zm-6.25 8.75h2.5V88h2.5v20H250V98h-2.5v-1.25zM265 88h2.5v20H265V88zm-6.25 8.75h2.5V88h2.5v20h-2.5V98h-2.5v-1.25zm17.5-8.75h2.5v20h-2.5V88zM270 96.75h2.5V88h2.5v20h-2.5V98H270v-1.25zM287.5 88h2.5v20h-2.5V88zm-6.25 8.75h2.5V88h2.5v20h-2.5V98h-2.5v-1.25zm17.5-8.75h2.5v20h-2.5V88zm-6.25 8.75h2.5V88h2.5v20H295V98h-2.5v-1.25zM310 88h2.5v20H310V88zm-6.25 8.75h2.5V88h2.5v20h-2.5V98h-2.5v-1.25zm17.5-8.75h2.5v20h-2.5V88zM315 96.75h2.5V88h2.5v20h-2.5V98H315v-1.25zM332.5 88h2.5v20h-2.5V88zm-6.25 8.75h2.5V88h2.5v20h-2.5V98h-2.5v-1.25zm17.5-8.75h2.5v20h-2.5V88zm-6.25 8.75h2.5V88h2.5v20H340V98h-2.5v-1.25zM355 88h2.5v20H355V88zm-6.25 8.75h2.5V88h2.5v20h-2.5V98h-2.5v-1.25zm17.5-8.75h2.5v20h-2.5V88zM360 96.75h2.5V88h2.5v20h-2.5V98H360v-1.25zM377.5 88h2.5v20h-2.5V88zm-6.25 8.75h2.5V88h2.5v20h-2.5V98h-2.5v-1.25zm17.5-8.75h2.5v20h-2.5V88zm-6.25 8.75h2.5V88h2.5v20H385V98h-2.5v-1.25zM400 88h2.5v20H400V88zm-6.25 8.75h2.5V88h2.5v20h-2.5V98h-2.5v-1.25zm17.5-8.75h2.5v20h-2.5V88zM405 96.75h2.5V88h2.5v20h-2.5V98H405v-1.25zM422.5 88h2.5v20h-2.5V88zm-6.25 8.75h2.5V88h2.5v20h-2.5V98h-2.5v-1.25zM0 126.25h10v1.25H0v-1.25zm11.25 0h10v1.25h-10v-1.25zm11.25 0h10v1.25h-10v-1.25zM40 110h2.5v20H40v-20zm-6.25 8.75h2.5V110h2.5v20h-2.5v-10h-2.5v-1.25zm17.5-8.75h2.5v20h-2.5v-20zM45 118.75h2.5V110H50v20h-2.5v-10H45v-1.25zM62.5 110H65v20h-2.5v-20zm-6.25 8.75h2.5V110h2.5v20h-2.5v-10h-2.5v-1.25zm17.5-8.75h2.5v20h-2.5v-20zm-6.25 8.75H70V110h2.5v20H70v-10h-2.5v-1.25zM85 110h2.5v20H85v-20zm-6.25 8.75h2.5V110h2.5v20h-2.5v-10h-2.5v-1.25zm17.5-8.75h2.5v20h-2.5v-20zM90 118.75h2.5V110H95v20h-2.5v-10H90v-1.25zm17.5-8.75h2.5v20h-2.5v-20zm-6.25 8.75h2.5V110h2.5v20h-2.5v-10h-2.5v-1.25zm17.5-8.75h2.5v20h-2.5v-20zm-6.25 8.75h2.5V110h2.5v20H115v-10h-2.5v-1.25zM130 110h2.5v20H130v-20zm-6.25 8.75h2.5V110h2.5v20h-2.5v-10h-2.5v-1.25zm17.5-8.75h2.5v20h-2.5v-20zm-6.25 8.75h2.5V110h2.5v20h-2.5v-10H135v-1.25zm17.5-8.75h2.5v20h-2.5v-20zm-6.25 8.75h2.5V110h2.5v20h-2.5v-10h-2.5v-1.25zm17.5-8.75h2.5v20h-2.5v-20zm-6.25 8.75h2.5V110h2.5v20H160v-10h-2.5v-1.25zM175 110h2.5v20H175v-20zm-6.25 8.75h2.5V110h2.5v20h-2.5v-10h-2.5v-1.25zm17.5-8.75h2.5v20h-2.5v-20zm-6.25 8.75h2.5V110h2.5v20h-2.5v-10H180v-1.25zm17.5-8.75h2.5v20h-2.5v-20zm-6.25 8.75h2.5V110h2.5v20h-2.5v-10h-2.5v-1.25zm17.5-8.75h2.5v20h-2.5v-20zm-6.25 8.75h2.5V110h2.5v20H205v-10h-2.5v-1.25zM220 110h2.5v20H220v-20zm-6.25 8.75h2.5V110h2.5v20h-2.5v-10h-2.5v-1.25zm11.25 7.5h10v1.25h-10v-1.25zm11.25 0h10v1.25h-10v-1.25zm11.25 0h10v1.25h-10v-1.25zm11.25 0h10v1.25h-10v-1.25zm11.25 0h10v1.25h-10v-1.25zm11.25 0h10v1.25h-10v-1.25zm11.25 0h10v1.25h-10v-1.25zm11.25 0h10v1.25h-10v-1.25zm11.25 0h10v1.25h-10v-1.25zm11.25 0h10v1.25h-10v-1.25zm17.5-16.25h2.5v20h-2.5v-20zm-6.25 8.75h2.5V110h2.5v20H340v-10h-2.5v-1.25zM355 110h2.5v20H355v-20zm-6.25 8.75h2.5V110h2.5v20h-2.5v-10h-2.5v-1.25zm17.5-8.75h2.5v20h-2.5v-20zm-6.25 8.75h2.5V110h2.5v20h-2.5v-10H360v-1.25zm17.5-8.75h2.5v20h-2.5v-20zm-6.25 8.75h2.5V110h2.5v20h-2.5v-10h-2.5v-1.25zm17.5-8.75h2.5v20h-2.5v-20zm-6.25 8.75h2.5V110h2.5v20H385v-10h-2.5v-1.25zM400 110h2.5v20H400v-20zm-6.25 8.75h2.5V110h2.5v20h-2.5v-10h-2.5v-1.25zm17.5-8.75h2.5v20h-2.5v-20zm-6.25 8.75h2.5V110h2.5v20h-2.5v-10H405v-1.25zm17.5-8.75h2.5v20h-2.5v-20zm-6.25 8.75h2.5V110h2.5v20h-2.5v-10h-2.5v-1.25zm17.5-8.75h2.5v20h-2.5v-20zm-6.25 8.75h2.5V110h2.5v20H430v-10h-2.5v-1.25zM445 110h2.5v20H445v-20zm-6.25 8.75h2.5V110h2.5v20h-2.5v-10h-2.5v-1.25zM0 148.25h10v1.25H0v-1.25zm11.25 0h10v1.25h-10v-1.25zm11.25 0h10v1.25h-10v-1.25zM40 132h2.5v20H40v-20zm-6.25 8.75h2.5V132h2.5v20h-2.5v-10h-2.5v-1.25zm17.5-8.75h2.5v20h-2.5v-20zM45 140.75h2.5V132H50v20h-2.5v-10H45v-1.25zM62.5 132H65v20h-2.5v-20zm-6.25 8.75h2.5V132h2.5v20h-2.5v-10h-2.5v-1.25zm17.5-8.75h2.5v20h-2.5v-20zm-6.25 8.75H70V132h2.5v20H70v-10h-2.5v-1.25zM85 132h2.5v20H85v-20zm-6.25 8.75h2.5V132h2.5v20h-2.5v-10h-2.5v-1.25zm17.5-8.75h2.5v20h-2.5v-20zM90 140.75h2.5V132H95v20h-2.5v-10H90v-1.25zm17.5-8.75h2.5v20h-2.5v-20zm-6.25 8.75h2.5V132h2.5v20h-2.5v-10h-2.5v-1.25zm17.5-8.75h2.5v20h-2.5v-20zm-6.25 8.75h2.5V132h2.5v20H115v-10h-2.5v-1.25zM130 132h2.5v20H130v-20zm-6.25 8.75h2.5V132h2.5v20h-2.5v-10h-2.5v-1.25zm17.5-8.75h2.5v20h-2.5v-20zm-6.25 8.75h2.5V132h2.5v20h-2.5v-10H135v-1.25zm17.5-8.75h2.5v20h-2.5v-20zm-6.25 8.75h2.5V132h2.5v20h-2.5v-10h-2.5v-1.25zm17.5-8.75h2.5v20h-2.5v-20zm-6.25 8.75h2.5V132h2.5v20H160v-10h-2.5v-1.25zM175 132h2.5v20H175v-20zm-6.25 8.75h2.5V132h2.5v20h-2.5v-10h-2.5v-1.25zm17.5-8.75h2.5v20h-2.5v-20zm-6.25 8.75h2.5V132h2.5v20h-2.5v-10H180v-1.25zm11.25 7.5h10v1.25h-10v-1.25zm11.25 0h10v1.25h-10v-1.25zm11.25 0h10v1.25h-10v-1.25zm11.25 0h10v1.25h-10v-1.25zm11.25 0h10v1.25h-10v-1.25zm11.25 0h10v1.25h-10v-1.25zm11.25 0h10v1.25h-10v-1.25zm11.25 0h10v1.25h-10v-1.25zm11.25 0h10v1.25h-10v-1.25zm11.25 0h10v1.25h-10v-1.25zm11.25 0h10v1.25h-10v-1.25zm11.25 0h10v1.25h-10v-1.25zm11.25 0h10v1.25h-10v-1.25zm11.25 0h10v1.25h-10v-1.25zm11.25 0h10v1.25h-10v-1.25zm11.25 0h10v1.25h-10v-1.25zM377.5 132h2.5v20h-2.5v-20zm-6.25 8.75h2.5V132h2.5v20h-2.5v-10h-2.5v-1.25zm17.5-8.75h2.5v20h-2.5v-20zm-6.25 8.75h2.5V132h2.5v20H385v-10h-2.5v-1.25zM400 132h2.5v20H400v-20zm-6.25 8.75h2.5V132h2.5v20h-2.5v-10h-2.5v-1.25zm17.5-8.75h2.5v20h-2.5v-20zm-6.25 8.75h2.5V132h2.5v20h-2.5v-10H405v-1.25zm17.5-8.75h2.5v20h-2.5v-20zm-6.25 8.75h2.5V132h2.5v20h-2.5v-10h-2.5v-1.25zm17.5-8.75h2.5v20h-2.5v-20zm-6.25 8.75h2.5V132h2.5v20H430v-10h-2.5v-1.25zM445 132h2.5v20H445v-20zm-6.25 8.75h2.5V132h2.5v20h-2.5v-10h-2.5v-1.25zM0 170.25h10v1.25H0v-1.25zm11.25 0h10v1.25h-10v-1.25zm11.25 0h10v1.25h-10v-1.25zM40 154h2.5v20H40v-20zm-6.25 8.75h2.5V154h2.5v20h-2.5v-10h-2.5v-1.25zm17.5-8.75h2.5v20h-2.5v-20zM45 162.75h2.5V154H50v20h-2.5v-10H45v-1.25zM62.5 154H65v20h-2.5v-20zm-6.25 8.75h2.5V154h2.5v20h-2.5v-10h-2.5v-1.25zm17.5-8.75h2.5v20h-2.5v-20zm-6.25 8.75H70V154h2.5v20H70v-10h-2.5v-1.25zM85 154h2.5v20H85v-20zm-6.25 8.75h2.5V154h2.5v20h-2.5v-10h-2.5v-1.25zm17.5-8.75h2.5v20h-2.5v-20zM90 162.75h2.5V154H95v20h-2.5v-10H90v-1.25zm17.5-8.75h2.5v20h-2.5v-20zm-6.25 8.75h2.5V154h2.5v20h-2.5v-10h-2.5v-1.25zm17.5-8.75h2.5v20h-2.5v-20zm-6.25 8.75h2.5V154h2.5v20H115v-10h-2.5v-1.25zM130 154h2.5v20H130v-20zm-6.25 8.75h2.5V154h2.5v20h-2.5v-10h-2.5v-1.25zm17.5-8.75h2.5v20h-2.5v-20zm-6.25 8.75h2.5V154h2.5v20h-2.5v-10H135v-1.25zm17.5-8.75h2.5v20h-2.5v-20zm-6.25 8.75h2.5V154h2.5v20h-2.5v-10h-2.5v-1.25zm17.5-8.75h2.5v20h-2.5v-20zm-6.25 8.75h2.5V154h2.5v20H160v-10h-2.5v-1.25zM175 154h2.5v20H175v-20zm-6.25 8.75h2.5V154h2.5v20h-2.5v-10h-2.5v-1.25zm11.25 7.5h10v1.25h-10v-1.25zm11.25 0h10v1.25h-10v-1.25zm11.25 0h10v1.25h-10v-1.25zm11.25 0h10v1.25h-10v-1.25zm17.5-16.25h2.5v20h-2.5v-20zm-6.25 8.75h2.5V154h2.5v20h-2.5v-10H225v-1.25zm17.5-8.75h2.5v20h-2.5v-20zm-6.25 8.75h2.5V154h2.5v20h-2.5v-10h-2.5v-1.25zm17.5-8.75h2.5v20h-2.5v-20zm-6.25 8.75h2.5V154h2.5v20H250v-10h-2.5v-1.25zM265 154h2.5v20H265v-20zm-6.25 8.75h2.5V154h2.5v20h-2.5v-10h-2.5v-1.25zm17.5-8.75h2.5v20h-2.5v-20zm-6.25 8.75h2.5V154h2.5v20h-2.5v-10H270v-1.25zm11.25 7.5h10v1.25h-10v-1.25zm11.25 0h10v1.25h-10v-1.25zm11.25 0h10v1.25h-10v-1.25zm11.25 0h10v1.25h-10v-1.25zm11.25 0h10v1.25h-10v-1.25zm11.25 0h10v1.25h-10v-1.25zm11.25 0h10v1.25h-10v-1.25zm17.5-16.25h2.5v20h-2.5v-20zm-6.25 8.75h2.5V154h2.5v20h-2.5v-10H360v-1.25zm17.5-8.75h2.5v20h-2.5v-20zm-6.25 8.75h2.5V154h2.5v20h-2.5v-10h-2.5v-1.25zm17.5-8.75h2.5v20h-2.5v-20zm-6.25 8.75h2.5V154h2.5v20H385v-10h-2.5v-1.25zM400 154h2.5v20H400v-20zm-6.25 8.75h2.5V154h2.5v20h-2.5v-10h-2.5v-1.25zm17.5-8.75h2.5v20h-2.5v-20zm-6.25 8.75h2.5V154h2.5v20h-2.5v-10H405v-1.25zm17.5-8.75h2.5v20h-2.5v-20zm-6.25 8.75h2.5V154h2.5v20h-2.5v-10h-2.5v-1.25zm17.5-8.75h2.5v20h-2.5v-20zm-6.25 8.75h2.5V154h2.5v20H430v-10h-2.5v-1.25zM445 154h2.5v20H445v-20zm-6.25 8.75h2.5V154h2.5v20h-2.5v-10h-2.5v-1.25zM0 192.25h10v1.25H0v-1.25zm11.25 0h10v1.25h-10v-1.25zM28.75 176h2.5v20h-2.5v-20zm-6.25 8.75H25V176h2.5v20H25v-10h-2.5v-1.25zM40 176h2.5v20H40v-20zm-6.25 8.75h2.5V176h2.5v20h-2.5v-10h-2.5v-1.25zm17.5-8.75h2.5v20h-2.5v-20zM45 184.75h2.5V176H50v20h-2.5v-10H45v-1.25zM62.5 176H65v20h-2.5v-20zm-6.25 8.75h2.5V176h2.5v20h-2.5v-10h-2.5v-1.25zm17.5-8.75h2.5v20h-2.5v-20zm-6.25 8.75H70V176h2.5v20H70v-10h-2.5v-1.25zM85 176h2.5v20H85v-20zm-6.25 8.75h2.5V176h2.5v20h-2.5v-10h-2.5v-1.25zm17.5-8.75h2.5v20h-2.5v-20zM90 184.75h2.5V176H95v20h-2.5v-10H90v-1.25zm17.5-8.75h2.5v20h-2.5v-20zm-6.25 8.75h2.5V176h2.5v20h-2.5v-10h-2.5v-1.25zm17.5-8.75h2.5v20h-2.5v-20zm-6.25 8.75h2.5V176h2.5v20H115v-10h-2.5v-1.25zM130 176h2.5v20H130v-20zm-6.25 8.75h2.5V176h2.5v20h-2.5v-10h-2.5v-1.25zm17.5-8.75h2.5v20h-2.5v-20zm-6.25 8.75h2.5V176h2.5v20h-2.5v-10H135v-1.25zm17.5-8.75h2.5v20h-2.5v-20zm-6.25 8.75h2.5V176h2.5v20h-2.5v-10h-2.5v-1.25zm17.5-8.75h2.5v20h-2.5v-20zm-6.25 8.75h2.5V176h2.5v20H160v-10h-2.5v-1.25zM175 176h2.5v20H175v-20zm-6.25 8.75h2.5V176h2.5v20h-2.5v-10h-2.5v-1.25zm17.5-8.75h2.5v20h-2.5v-20zm-6.25 8.75h2.5V176h2.5v20h-2.5v-10H180v-1.25zm11.25 7.5h10v1.25h-10v-1.25zm11.25 0h10v1.25h-10v-1.25zm11.25 0h10v1.25h-10v-1.25zm17.5-16.25h2.5v20h-2.5v-20zm-6.25 8.75h2.5V176h2.5v20h-2.5v-10H225v-1.25zm17.5-8.75h2.5v20h-2.5v-20zm-6.25 8.75h2.5V176h2.5v20h-2.5v-10h-2.5v-1.25zm17.5-8.75h2.5v20h-2.5v-20zm-6.25 8.75h2.5V176h2.5v20H250v-10h-2.5v-1.25zM265 176h2.5v20H265v-20zm-6.25 8.75h2.5V176h2.5v20h-2.5v-10h-2.5v-1.25zm17.5-8.75h2.5v20h-2.5v-20zm-6.25 8.75h2.5V176h2.5v20h-2.5v-10H270v-1.25zm11.25 7.5h10v1.25h-10v-1.25zm11.25 0h10v1.25h-10v-1.25zm11.25 0h10v1.25h-10v-1.25zm17.5-16.25h2.5v20h-2.5v-20zm-6.25 8.75h2.5V176h2.5v20h-2.5v-10H315v-1.25zm17.5-8.75h2.5v20h-2.5v-20zm-6.25 8.75h2.5V176h2.5v20h-2.5v-10h-2.5v-1.25zm17.5-8.75h2.5v20h-2.5v-20zm-6.25 8.75h2.5V176h2.5v20H340v-10h-2.5v-1.25zM355 176h2.5v20H355v-20zm-6.25 8.75h2.5V176h2.5v20h-2.5v-10h-2.5v-1.25zm17.5-8.75h2.5v20h-2.5v-20zm-6.25 8.75h2.5V176h2.5v20h-2.5v-10H360v-1.25zm17.5-8.75h2.5v20h-2.5v-20zm-6.25 8.75h2.5V176h2.5v20h-2.5v-10h-2.5v-1.25zm17.5-8.75h2.5v20h-2.5v-20zm-6.25 8.75h2.5V176h2.5v20H385v-10h-2.5v-1.25zM400 176h2.5v20H400v-20zm-6.25 8.75h2.5V176h2.5v20h-2.5v-10h-2.5v-1.25zM0 214.25h10v1.25H0v-1.25zm11.25 0h10v1.25h-10v-1.25zM28.75 198h2.5v20h-2.5v-20zm-6.25 8.75H25V198h2.5v20H25v-10h-2.5v-1.25zM40 198h2.5v20H40v-20zm-6.25 8.75h2.5V198h2.5v20h-2.5v-10h-2.5v-1.25zm17.5-8.75h2.5v20h-2.5v-20zM45 206.75h2.5V198H50v20h-2.5v-10H45v-1.25zM62.5 198H65v20h-2.5v-20zm-6.25 8.75h2.5V198h2.5v20h-2.5v-10h-2.5v-1.25zm17.5-8.75h2.5v20h-2.5v-20zm-6.25 8.75H70V198h2.5v20H70v-10h-2.5v-1.25zM85 198h2.5v20H85v-20zm-6.25 8.75h2.5V198h2.5v20h-2.5v-10h-2.5v-1.25zm17.5-8.75h2.5v20h-2.5v-20zM90 206.75h2.5V198H95v20h-2.5v-10H90v-1.25zm17.5-8.75h2.5v20h-2.5v-20zm-6.25 8.75h2.5V198h2.5v20h-2.5v-10h-2.5v-1.25zm17.5-8.75h2.5v20h-2.5v-20zm-6.25 8.75h2.5V198h2.5v20H115v-10h-2.5v-1.25zM130 198h2.5v20H130v-20zm-6.25 8.75h2.5V198h2.5v20h-2.5v-10h-2.5v-1.25zm17.5-8.75h2.5v20h-2.5v-20zm-6.25 8.75h2.5V198h2.5v20h-2.5v-10H135v-1.25zm17.5-8.75h2.5v20h-2.5v-20zm-6.25 8.75h2.5V198h2.5v20h-2.5v-10h-2.5v-1.25zm17.5-8.75h2.5v20h-2.5v-20zm-6.25 8.75h2.5V198h2.5v20H160v-10h-2.5v-1.25zm11.25 7.5h10v1.25h-10v-1.25zm17.5-16.25h2.5v20h-2.5v-20zm-6.25 8.75h2.5V198h2.5v20h-2.5v-10H180v-1.25zm17.5-8.75h2.5v20h-2.5v-20zm-6.25 8.75h2.5V198h2.5v20h-2.5v-10h-2.5v-1.25zm11.25 7.5h10v1.25h-10v-1.25zm11.25 0h10v1.25h-10v-1.25zm11.25 0h10v1.25h-10v-1.25zm11.25 0h10v1.25h-10v-1.25zm11.25 0h10v1.25h-10v-1.25zm11.25 0h10v1.25h-10v-1.25zm11.25 0h10v1.25h-10v-1.25zm11.25 0h10v1.25h-10v-1.25zm11.25 0h10v1.25h-10v-1.25zM310 198h2.5v20H310v-20zm-6.25 8.75h2.5V198h2.5v20h-2.5v-10h-2.5v-1.25zm17.5-8.75h2.5v20h-2.5v-20zm-6.25 8.75h2.5V198h2.5v20h-2.5v-10H315v-1.25zm17.5-8.75h2.5v20h-2.5v-20zm-6.25 8.75h2.5V198h2.5v20h-2.5v-10h-2.5v-1.25zm17.5-8.75h2.5v20h-2.5v-20zm-6.25 8.75h2.5V198h2.5v20H340v-10h-2.5v-1.25zM355 198h2.5v20H355v-20zm-6.25 8.75h2.5V198h2.5v20h-2.5v-10h-2.5v-1.25zm17.5-8.75h2.5v20h-2.5v-20zm-6.25 8.75h2.5V198h2.5v20h-2.5v-10H360v-1.25zm17.5-8.75h2.5v20h-2.5v-20zm-6.25 8.75h2.5V198h2.5v20h-2.5v-10h-2.5v-1.25zM0 236.25h10v1.25H0v-1.25zm11.25 0h10v1.25h-10v-1.25zM28.75 220h2.5v20h-2.5v-20zm-6.25 8.75H25V220h2.5v20H25v-10h-2.5v-1.25zM40 220h2.5v20H40v-20zm-6.25 8.75h2.5V220h2.5v20h-2.5v-10h-2.5v-1.25zm17.5-8.75h2.5v20h-2.5v-20zM45 228.75h2.5V220H50v20h-2.5v-10H45v-1.25zM62.5 220H65v20h-2.5v-20zm-6.25 8.75h2.5V220h2.5v20h-2.5v-10h-2.5v-1.25zm17.5-8.75h2.5v20h-2.5v-20zm-6.25 8.75H70V220h2.5v20H70v-10h-2.5v-1.25zM85 220h2.5v20H85v-20zm-6.25 8.75h2.5V220h2.5v20h-2.5v-10h-2.5v-1.25zm17.5-8.75h2.5v20h-2.5v-20zM90 228.75h2.5V220H95v20h-2.5v-10H90v-1.25zm17.5-8.75h2.5v20h-2.5v-20zm-6.25 8.75h2.5V220h2.5v20h-2.5v-10h-2.5v-1.25zm17.5-8.75h2.5v20h-2.5v-20zm-6.25 8.75h2.5V220h2.5v20H115v-10h-2.5v-1.25zM130 220h2.5v20H130v-20zm-6.25 8.75h2.5V220h2.5v20h-2.5v-10h-2.5v-1.25zm17.5-8.75h2.5v20h-2.5v-20zm-6.25 8.75h2.5V220h2.5v20h-2.5v-10H135v-1.25zm17.5-8.75h2.5v20h-2.5v-20zm-6.25 8.75h2.5V220h2.5v20h-2.5v-10h-2.5v-1.25zm17.5-8.75h2.5v20h-2.5v-20zm-6.25 8.75h2.5V220h2.5v20H160v-10h-2.5v-1.25zM175 220h2.5v20H175v-20zm-6.25 8.75h2.5V220h2.5v20h-2.5v-10h-2.5v-1.25zm17.5-8.75h2.5v20h-2.5v-20zm-6.25 8.75h2.5V220h2.5v20h-2.5v-10H180v-1.25zm17.5-8.75h2.5v20h-2.5v-20zm-6.25 8.75h2.5V220h2.5v20h-2.5v-10h-2.5v-1.25zm11.25 7.5h10v1.25h-10v-1.25zm11.25 0h10v1.25h-10v-1.25zm11.25 0h10v1.25h-10v-1.25zm11.25 0h10v1.25h-10v-1.25zm11.25 0h10v1.25h-10v-1.25zm11.25 0h10v1.25h-10v-1.25zm11.25 0h10v1.25h-10v-1.25zM287.5 220h2.5v20h-2.5v-20zm-6.25 8.75h2.5V220h2.5v20h-2.5v-10h-2.5v-1.25zm11.25 7.5h10v1.25h-10v-1.25zm11.25 0h10v1.25h-10v-1.25zm11.25 0h10v1.25h-10v-1.25zM332.5 220h2.5v20h-2.5v-20zm-6.25 8.75h2.5V220h2.5v20h-2.5v-10h-2.5v-1.25zm17.5-8.75h2.5v20h-2.5v-20zm-6.25 8.75h2.5V220h2.5v20H340v-10h-2.5v-1.25zM355 220h2.5v20H355v-20zm-6.25 8.75h2.5V220h2.5v20h-2.5v-10h-2.5v-1.25zm17.5-8.75h2.5v20h-2.5v-20zm-6.25 8.75h2.5V220h2.5v20h-2.5v-10H360v-1.25zm17.5-8.75h2.5v20h-2.5v-20zm-6.25 8.75h2.5V220h2.5v20h-2.5v-10h-2.5v-1.25zM0 258.25h10v1.25H0v-1.25zm11.25 0h10v1.25h-10v-1.25zM28.75 242h2.5v20h-2.5v-20zm-6.25 8.75H25V242h2.5v20H25v-10h-2.5v-1.25zM40 242h2.5v20H40v-20zm-6.25 8.75h2.5V242h2.5v20h-2.5v-10h-2.5v-1.25zm17.5-8.75h2.5v20h-2.5v-20zM45 250.75h2.5V242H50v20h-2.5v-10H45v-1.25zM62.5 242H65v20h-2.5v-20zm-6.25 8.75h2.5V242h2.5v20h-2.5v-10h-2.5v-1.25zm17.5-8.75h2.5v20h-2.5v-20zm-6.25 8.75H70V242h2.5v20H70v-10h-2.5v-1.25zM85 242h2.5v20H85v-20zm-6.25 8.75h2.5V242h2.5v20h-2.5v-10h-2.5v-1.25zm17.5-8.75h2.5v20h-2.5v-20zM90 250.75h2.5V242H95v20h-2.5v-10H90v-1.25zm17.5-8.75h2.5v20h-2.5v-20zm-6.25 8.75h2.5V242h2.5v20h-2.5v-10h-2.5v-1.25zm17.5-8.75h2.5v20h-2.5v-20zm-6.25 8.75h2.5V242h2.5v20H115v-10h-2.5v-1.25zM130 242h2.5v20H130v-20zm-6.25 8.75h2.5V242h2.5v20h-2.5v-10h-2.5v-1.25zm17.5-8.75h2.5v20h-2.5v-20zm-6.25 8.75h2.5V242h2.5v20h-2.5v-10H135v-1.25zm17.5-8.75h2.5v20h-2.5v-20zm-6.25 8.75h2.5V242h2.5v20h-2.5v-10h-2.5v-1.25zm17.5-8.75h2.5v20h-2.5v-20zm-6.25 8.75h2.5V242h2.5v20H160v-10h-2.5v-1.25zM175 242h2.5v20H175v-20zm-6.25 8.75h2.5V242h2.5v20h-2.5v-10h-2.5v-1.25zm17.5-8.75h2.5v20h-2.5v-20zm-6.25 8.75h2.5V242h2.5v20h-2.5v-10H180v-1.25zm17.5-8.75h2.5v20h-2.5v-20zm-6.25 8.75h2.5V242h2.5v20h-2.5v-10h-2.5v-1.25zm17.5-8.75h2.5v20h-2.5v-20zm-6.25 8.75h2.5V242h2.5v20H205v-10h-2.5v-1.25zm11.25 7.5h10v1.25h-10v-1.25zm11.25 0h10v1.25h-10v-1.25zm11.25 0h10v1.25h-10v-1.25zm11.25 0h10v1.25h-10v-1.25zm11.25 0h10v1.25h-10v-1.25zm17.5-16.25h2.5v20h-2.5v-20zm-6.25 8.75h2.5V242h2.5v20h-2.5v-10H270v-1.25zm17.5-8.75h2.5v20h-2.5v-20zm-6.25 8.75h2.5V242h2.5v20h-2.5v-10h-2.5v-1.25zm17.5-8.75h2.5v20h-2.5v-20zm-6.25 8.75h2.5V242h2.5v20H295v-10h-2.5v-1.25zm11.25 7.5h10v1.25h-10v-1.25zm17.5-16.25h2.5v20h-2.5v-20zm-6.25 8.75h2.5V242h2.5v20h-2.5v-10H315v-1.25zm17.5-8.75h2.5v20h-2.5v-20zm-6.25 8.75h2.5V242h2.5v20h-2.5v-10h-2.5v-1.25zm17.5-8.75h2.5v20h-2.5v-20zm-6.25 8.75h2.5V242h2.5v20H340v-10h-2.5v-1.25zM355 242h2.5v20H355v-20zm-6.25 8.75h2.5V242h2.5v20h-2.5v-10h-2.5v-1.25zm17.5-8.75h2.5v20h-2.5v-20zm-6.25 8.75h2.5V242h2.5v20h-2.5v-10H360v-1.25zM0 280.25h10v1.25H0v-1.25zm11.25 0h10v1.25h-10v-1.25zM28.75 264h2.5v20h-2.5v-20zm-6.25 8.75H25V264h2.5v20H25v-10h-2.5v-1.25zM40 264h2.5v20H40v-20zm-6.25 8.75h2.5V264h2.5v20h-2.5v-10h-2.5v-1.25zm17.5-8.75h2.5v20h-2.5v-20zM45 272.75h2.5V264H50v20h-2.5v-10H45v-1.25zM62.5 264H65v20h-2.5v-20zm-6.25 8.75h2.5V264h2.5v20h-2.5v-10h-2.5v-1.25zm17.5-8.75h2.5v20h-2.5v-20zm-6.25 8.75H70V264h2.5v20H70v-10h-2.5v-1.25zM85 264h2.5v20H85v-20zm-6.25 8.75h2.5V264h2.5v20h-2.5v-10h-2.5v-1.25zm17.5-8.75h2.5v20h-2.5v-20zM90 272.75h2.5V264H95v20h-2.5v-10H90v-1.25zm17.5-8.75h2.5v20h-2.5v-20zm-6.25 8.75h2.5V264h2.5v20h-2.5v-10h-2.5v-1.25zm17.5-8.75h2.5v20h-2.5v-20zm-6.25 8.75h2.5V264h2.5v20H115v-10h-2.5v-1.25zM130 264h2.5v20H130v-20zm-6.25 8.75h2.5V264h2.5v20h-2.5v-10h-2.5v-1.25zm17.5-8.75h2.5v20h-2.5v-20zm-6.25 8.75h2.5V264h2.5v20h-2.5v-10H135v-1.25zm17.5-8.75h2.5v20h-2.5v-20zm-6.25 8.75h2.5V264h2.5v20h-2.5v-10h-2.5v-1.25zm11.25 7.5h10v1.25h-10v-1.25zm11.25 0h10v1.25h-10v-1.25zm11.25 0h10v1.25h-10v-1.25zm11.25 0h10v1.25h-10v-1.25zm11.25 0h10v1.25h-10v-1.25zM220 264h2.5v20H220v-20zm-6.25 8.75h2.5V264h2.5v20h-2.5v-10h-2.5v-1.25zm17.5-8.75h2.5v20h-2.5v-20zm-6.25 8.75h2.5V264h2.5v20h-2.5v-10H225v-1.25zm17.5-8.75h2.5v20h-2.5v-20zm-6.25 8.75h2.5V264h2.5v20h-2.5v-10h-2.5v-1.25zm17.5-8.75h2.5v20h-2.5v-20zm-6.25 8.75h2.5V264h2.5v20H250v-10h-2.5v-1.25zM265 264h2.5v20H265v-20zm-6.25 8.75h2.5V264h2.5v20h-2.5v-10h-2.5v-1.25zm17.5-8.75h2.5v20h-2.5v-20zm-6.25 8.75h2.5V264h2.5v20h-2.5v-10H270v-1.25zm17.5-8.75h2.5v20h-2.5v-20zm-6.25 8.75h2.5V264h2.5v20h-2.5v-10h-2.5v-1.25zm11.25 7.5h10v1.25h-10v-1.25zM310 264h2.5v20H310v-20zm-6.25 8.75h2.5V264h2.5v20h-2.5v-10h-2.5v-1.25zm17.5-8.75h2.5v20h-2.5v-20zm-6.25 8.75h2.5V264h2.5v20h-2.5v-10H315v-1.25zm17.5-8.75h2.5v20h-2.5v-20zm-6.25 8.75h2.5V264h2.5v20h-2.5v-10h-2.5v-1.25zm17.5-8.75h2.5v20h-2.5v-20zm-6.25 8.75h2.5V264h2.5v20H340v-10h-2.5v-1.25zM0 302.25h10v1.25H0v-1.25zm11.25 0h10v1.25h-10v-1.25zM28.75 286h2.5v20h-2.5v-20zm-6.25 8.75H25V286h2.5v20H25v-10h-2.5v-1.25zM40 286h2.5v20H40v-20zm-6.25 8.75h2.5V286h2.5v20h-2.5v-10h-2.5v-1.25zm17.5-8.75h2.5v20h-2.5v-20zM45 294.75h2.5V286H50v20h-2.5v-10H45v-1.25zM62.5 286H65v20h-2.5v-20zm-6.25 8.75h2.5V286h2.5v20h-2.5v-10h-2.5v-1.25zm17.5-8.75h2.5v20h-2.5v-20zm-6.25 8.75H70V286h2.5v20H70v-10h-2.5v-1.25zM85 286h2.5v20H85v-20zm-6.25 8.75h2.5V286h2.5v20h-2.5v-10h-2.5v-1.25zm17.5-8.75h2.5v20h-2.5v-20zM90 294.75h2.5V286H95v20h-2.5v-10H90v-1.25zm17.5-8.75h2.5v20h-2.5v-20zm-6.25 8.75h2.5V286h2.5v20h-2.5v-10h-2.5v-1.25zm17.5-8.75h2.5v20h-2.5v-20zm-6.25 8.75h2.5V286h2.5v20H115v-10h-2.5v-1.25zM130 286h2.5v20H130v-20zm-6.25 8.75h2.5V286h2.5v20h-2.5v-10h-2.5v-1.25zm17.5-8.75h2.5v20h-2.5v-20zm-6.25 8.75h2.5V286h2.5v20h-2.5v-10H135v-1.25zm17.5-8.75h2.5v20h-2.5v-20zm-6.25 8.75h2.5V286h2.5v20h-2.5v-10h-2.5v-1.25zm11.25 7.5h10v1.25h-10v-1.25zm11.25 0h10v1.25h-10v-1.25zm11.25 0h10v1.25h-10v-1.25zm11.25 0h10v1.25h-10v-1.25zm11.25 0h10v1.25h-10v-1.25zm11.25 0h10v1.25h-10v-1.25zm11.25 0h10v1.25h-10v-1.25zM242.5 286h2.5v20h-2.5v-20zm-6.25 8.75h2.5V286h2.5v20h-2.5v-10h-2.5v-1.25zm17.5-8.75h2.5v20h-2.5v-20zm-6.25 8.75h2.5V286h2.5v20H250v-10h-2.5v-1.25zM265 286h2.5v20H265v-20zm-6.25 8.75h2.5V286h2.5v20h-2.5v-10h-2.5v-1.25zm17.5-8.75h2.5v20h-2.5v-20zm-6.25 8.75h2.5V286h2.5v20h-2.5v-10H270v-1.25zm17.5-8.75h2.5v20h-2.5v-20zm-6.25 8.75h2.5V286h2.5v20h-2.5v-10h-2.5v-1.25zm17.5-8.75h2.5v20h-2.5v-20zm-6.25 8.75h2.5V286h2.5v20H295v-10h-2.5v-1.25zM310 286h2.5v20H310v-20zm-6.25 8.75h2.5V286h2.5v20h-2.5v-10h-2.5v-1.25zm17.5-8.75h2.5v20h-2.5v-20zm-6.25 8.75h2.5V286h2.5v20h-2.5v-10H315v-1.25zm17.5-8.75h2.5v20h-2.5v-20zm-6.25 8.75h2.5V286h2.5v20h-2.5v-10h-2.5v-1.25zM0 324.25h10v1.25H0v-1.25zM17.5 308H20v20h-2.5v-20zm-6.25 8.75h2.5V308h2.5v20h-2.5v-10h-2.5v-1.25zm17.5-8.75h2.5v20h-2.5v-20zm-6.25 8.75H25V308h2.5v20H25v-10h-2.5v-1.25zM40 308h2.5v20H40v-20zm-6.25 8.75h2.5V308h2.5v20h-2.5v-10h-2.5v-1.25zm17.5-8.75h2.5v20h-2.5v-20zM45 316.75h2.5V308H50v20h-2.5v-10H45v-1.25zM62.5 308H65v20h-2.5v-20zm-6.25 8.75h2.5V308h2.5v20h-2.5v-10h-2.5v-1.25zm17.5-8.75h2.5v20h-2.5v-20zm-6.25 8.75H70V308h2.5v20H70v-10h-2.5v-1.25zM85 308h2.5v20H85v-20zm-6.25 8.75h2.5V308h2.5v20h-2.5v-10h-2.5v-1.25zm11.25 7.5h10v1.25H90v-1.25zM107.5 308h2.5v20h-2.5v-20zm-6.25 8.75h2.5V308h2.5v20h-2.5v-10h-2.5v-1.25zm17.5-8.75h2.5v20h-2.5v-20zm-6.25 8.75h2.5V308h2.5v20H115v-10h-2.5v-1.25zM130 308h2.5v20H130v-20zm-6.25 8.75h2.5V308h2.5v20h-2.5v-10h-2.5v-1.25zm11.25 7.5h10v1.25h-10v-1.25zm11.25 0h10v1.25h-10v-1.25zm11.25 0h10v1.25h-10v-1.25zm11.25 0h10v1.25h-10v-1.25zm11.25 0h10v1.25h-10v-1.25zm11.25 0h10v1.25h-10v-1.25zm11.25 0h10v1.25h-10v-1.25zm11.25 0h10v1.25h-10v-1.25zm11.25 0h10v1.25h-10v-1.25zm11.25 0h10v1.25h-10v-1.25zm11.25 0h10v1.25h-10v-1.25zM265 308h2.5v20H265v-20zm-6.25 8.75h2.5V308h2.5v20h-2.5v-10h-2.5v-1.25zm17.5-8.75h2.5v20h-2.5v-20zm-6.25 8.75h2.5V308h2.5v20h-2.5v-10H270v-1.25zm17.5-8.75h2.5v20h-2.5v-20zm-6.25 8.75h2.5V308h2.5v20h-2.5v-10h-2.5v-1.25zm17.5-8.75h2.5v20h-2.5v-20zm-6.25 8.75h2.5V308h2.5v20H295v-10h-2.5v-1.25zM310 308h2.5v20H310v-20zm-6.25 8.75h2.5V308h2.5v20h-2.5v-10h-2.5v-1.25zM6.25 330h2.5v20h-2.5v-20zM0 338.75h2.5V330H5v20H2.5v-10H0v-1.25zM17.5 330H20v20h-2.5v-20zm-6.25 8.75h2.5V330h2.5v20h-2.5v-10h-2.5v-1.25zm17.5-8.75h2.5v20h-2.5v-20zm-6.25 8.75H25V330h2.5v20H25v-10h-2.5v-1.25zM40 330h2.5v20H40v-20zm-6.25 8.75h2.5V330h2.5v20h-2.5v-10h-2.5v-1.25zm17.5-8.75h2.5v20h-2.5v-20zM45 338.75h2.5V330H50v20h-2.5v-10H45v-1.25zM62.5 330H65v20h-2.5v-20zm-6.25 8.75h2.5V330h2.5v20h-2.5v-10h-2.5v-1.25zm17.5-8.75h2.5v20h-2.5v-20zm-6.25 8.75H70V330h2.5v20H70v-10h-2.5v-1.25zm11.25 7.5h10v1.25h-10v-1.25zM96.25 330h2.5v20h-2.5v-20zM90 338.75h2.5V330H95v20h-2.5v-10H90v-1.25zm11.25 7.5h10v1.25h-10v-1.25zm11.25 0h10v1.25h-10v-1.25zm11.25 0h10v1.25h-10v-1.25zm11.25 0h10v1.25h-10v-1.25zm11.25 0h10v1.25h-10v-1.25zm11.25 0h10v1.25h-10v-1.25zm11.25 0h10v1.25h-10v-1.25zm11.25 0h10v1.25h-10v-1.25zm11.25 0h10v1.25h-10v-1.25zm11.25 0h10v1.25h-10v-1.25zm11.25 0h10v1.25h-10v-1.25zm11.25 0h10v1.25h-10v-1.25zm11.25 0h10v1.25h-10v-1.25zm11.25 0h10v1.25h-10v-1.25zm11.25 0h10v1.25h-10v-1.25zm17.5-16.25h2.5v20h-2.5v-20zm-6.25 8.75h2.5V330h2.5v20h-2.5v-10H270v-1.25zm17.5-8.75h2.5v20h-2.5v-20zm-6.25 8.75h2.5V330h2.5v20h-2.5v-10h-2.5v-1.25zm17.5-8.75h2.5v20h-2.5v-20zm-6.25 8.75h2.5V330h2.5v20H295v-10h-2.5v-1.25zM6.25 352h2.5v20h-2.5v-20zM0 360.75h2.5V352H5v20H2.5v-10H0v-1.25zM17.5 352H20v20h-2.5v-20zm-6.25 8.75h2.5V352h2.5v20h-2.5v-10h-2.5v-1.25zm17.5-8.75h2.5v20h-2.5v-20zm-6.25 8.75H25V352h2.5v20H25v-10h-2.5v-1.25zM40 352h2.5v20H40v-20zm-6.25 8.75h2.5V352h2.5v20h-2.5v-10h-2.5v-1.25zm17.5-8.75h2.5v20h-2.5v-20zM45 360.75h2.5V352H50v20h-2.5v-10H45v-1.25zM62.5 352H65v20h-2.5v-20zm-6.25 8.75h2.5V352h2.5v20h-2.5v-10h-2.5v-1.25zm11.25 7.5h10v1.25h-10v-1.25zm11.25 0h10v1.25h-10v-1.25zm11.25 0h10v1.25H90v-1.25zm11.25 0h10v1.25h-10v-1.25zm11.25 0h10v1.25h-10v-1.25zm11.25 0h10v1.25h-10v-1.25zm11.25 0h10v1.25h-10v-1.25zm11.25 0h10v1.25h-10v-1.25zm11.25 0h10v1.25h-10v-1.25zm11.25 0h10v1.25h-10v-1.25zm11.25 0h10v1.25h-10v-1.25zm11.25 0h10v1.25h-10v-1.25zm11.25 0h10v1.25h-10v-1.25zm11.25 0h10v1.25h-10v-1.25zm11.25 0h10v1.25h-10v-1.25zm11.25 0h10v1.25h-10v-1.25zm11.25 0h10v1.25h-10v-1.25zm11.25 0h10v1.25h-10v-1.25zm11.25 0h10v1.25h-10v-1.25zM287.5 352h2.5v20h-2.5v-20zm-6.25 8.75h2.5V352h2.5v20h-2.5v-10h-2.5v-1.25zm17.5-8.75h2.5v20h-2.5v-20zm-6.25 8.75h2.5V352h2.5v20H295v-10h-2.5v-1.25zM0 390.25h10v1.25H0v-1.25zM17.5 374H20v20h-2.5v-20zm-6.25 8.75h2.5V374h2.5v20h-2.5v-10h-2.5v-1.25zm17.5-8.75h2.5v20h-2.5v-20zm-6.25 8.75H25V374h2.5v20H25v-10h-2.5v-1.25zM40 374h2.5v20H40v-20zm-6.25 8.75h2.5V374h2.5v20h-2.5v-10h-2.5v-1.25zm11.25 7.5h10v1.25H45v-1.25zm11.25 0h10v1.25h-10v-1.25zm11.25 0h10v1.25h-10v-1.25zm11.25 0h10v1.25h-10v-1.25zm11.25 0h10v1.25H90v-1.25zm11.25 0h10v1.25h-10v-1.25zm11.25 0h10v1.25h-10v-1.25zm11.25 0h10v1.25h-10v-1.25zm11.25 0h10v1.25h-10v-1.25zm11.25 0h10v1.25h-10v-1.25zm11.25 0h10v1.25h-10v-1.25zm11.25 0h10v1.25h-10v-1.25zm11.25 0h10v1.25h-10v-1.25zm11.25 0h10v1.25h-10v-1.25zm11.25 0h10v1.25h-10v-1.25zm11.25 0h10v1.25h-10v-1.25zm11.25 0h10v1.25h-10v-1.25zm11.25 0h10v1.25h-10v-1.25zm11.25 0h10v1.25h-10v-1.25zm11.25 0h10v1.25h-10v-1.25zm11.25 0h10v1.25h-10v-1.25zM287.5 374h2.5v20h-2.5v-20zm-6.25 8.75h2.5V374h2.5v20h-2.5v-10h-2.5v-1.25zm11.25 7.5h10v1.25h-10v-1.25zM310 374h2.5v20H310v-20zm-6.25 8.75h2.5V374h2.5v20h-2.5v-10h-2.5v-1.25zM0 412.25h10v1.25H0v-1.25zM17.5 396H20v20h-2.5v-20zm-6.25 8.75h2.5V396h2.5v20h-2.5v-10h-2.5v-1.25zm17.5-8.75h2.5v20h-2.5v-20zm-6.25 8.75H25V396h2.5v20H25v-10h-2.5v-1.25zM40 396h2.5v20H40v-20zm-6.25 8.75h2.5V396h2.5v20h-2.5v-10h-2.5v-1.25zm11.25 7.5h10v1.25H45v-1.25zm11.25 0h10v1.25h-10v-1.25zm11.25 0h10v1.25h-10v-1.25zm11.25 0h10v1.25h-10v-1.25zm11.25 0h10v1.25H90v-1.25zm11.25 0h10v1.25h-10v-1.25zm11.25 0h10v1.25h-10v-1.25zm11.25 0h10v1.25h-10v-1.25zm11.25 0h10v1.25h-10v-1.25zm11.25 0h10v1.25h-10v-1.25zm11.25 0h10v1.25h-10v-1.25zm11.25 0h10v1.25h-10v-1.25zm11.25 0h10v1.25h-10v-1.25zm11.25 0h10v1.25h-10v-1.25zm11.25 0h10v1.25h-10v-1.25zm11.25 0h10v1.25h-10v-1.25zm11.25 0h10v1.25h-10v-1.25zm11.25 0h10v1.25h-10v-1.25zm11.25 0h10v1.25h-10v-1.25zm11.25 0h10v1.25h-10v-1.25zm11.25 0h10v1.25h-10v-1.25zM287.5 396h2.5v20h-2.5v-20zm-6.25 8.75h2.5V396h2.5v20h-2.5v-10h-2.5v-1.25zm17.5-8.75h2.5v20h-2.5v-20zm-6.25 8.75h2.5V396h2.5v20H295v-10h-2.5v-1.25zM0 434.25h10v1.25H0v-1.25zm11.25 0h10v1.25h-10v-1.25zm11.25 0h10v1.25h-10v-1.25zM40 418h2.5v20H40v-20zm-6.25 8.75h2.5V418h2.5v20h-2.5v-10h-2.5v-1.25zm17.5-8.75h2.5v20h-2.5v-20zM45 426.75h2.5V418H50v20h-2.5v-10H45v-1.25zm11.25 7.5h10v1.25h-10v-1.25zm11.25 0h10v1.25h-10v-1.25zm11.25 0h10v1.25h-10v-1.25zm11.25 0h10v1.25H90v-1.25zm11.25 0h10v1.25h-10v-1.25zm11.25 0h10v1.25h-10v-1.25zm11.25 0h10v1.25h-10v-1.25zm11.25 0h10v1.25h-10v-1.25zm11.25 0h10v1.25h-10v-1.25zm11.25 0h10v1.25h-10v-1.25zM175 418h2.5v20H175v-20zm-6.25 8.75h2.5V418h2.5v20h-2.5v-10h-2.5v-1.25zm11.25 7.5h10v1.25h-10v-1.25zm11.25 0h10v1.25h-10v-1.25zm11.25 0h10v1.25h-10v-1.25zm11.25 0h10v1.25h-10v-1.25zm11.25 0h10v1.25h-10v-1.25zm11.25 0h10v1.25h-10v-1.25zm11.25 0h10v1.25h-10v-1.25zm11.25 0h10v1.25h-10v-1.25zm11.25 0h10v1.25h-10v-1.25zm11.25 0h10v1.25h-10v-1.25zm11.25 0h10v1.25h-10v-1.25zM310 418h2.5v20H310v-20zm-6.25 8.75h2.5V418h2.5v20h-2.5v-10h-2.5v-1.25zm17.5-8.75h2.5v20h-2.5v-20zm-6.25 8.75h2.5V418h2.5v20h-2.5v-10H315v-1.25zm17.5-8.75h2.5v20h-2.5v-20zm-6.25 8.75h2.5V418h2.5v20h-2.5v-10h-2.5v-1.25zM0 456.25h10v1.25H0v-1.25zm11.25 0h10v1.25h-10v-1.25zm11.25 0h10v1.25h-10v-1.25zm11.25 0h10v1.25h-10v-1.25zM51.25 440h2.5v20h-2.5v-20zM45 448.75h2.5V440H50v20h-2.5v-10H45v-1.25zM62.5 440H65v20h-2.5v-20zm-6.25 8.75h2.5V440h2.5v20h-2.5v-10h-2.5v-1.25zm11.25 7.5h10v1.25h-10v-1.25zm11.25 0h10v1.25h-10v-1.25zm11.25 0h10v1.25H90v-1.25zm11.25 0h10v1.25h-10v-1.25zm11.25 0h10v1.25h-10v-1.25zm11.25 0h10v1.25h-10v-1.25zm11.25 0h10v1.25h-10v-1.25zm11.25 0h10v1.25h-10v-1.25zm11.25 0h10v1.25h-10v-1.25zM175 440h2.5v20H175v-20zm-6.25 8.75h2.5V440h2.5v20h-2.5v-10h-2.5v-1.25zm17.5-8.75h2.5v20h-2.5v-20zm-6.25 8.75h2.5V440h2.5v20h-2.5v-10H180v-1.25zm11.25 7.5h10v1.25h-10v-1.25zm11.25 0h10v1.25h-10v-1.25zm11.25 0h10v1.25h-10v-1.25zm11.25 0h10v1.25h-10v-1.25zm11.25 0h10v1.25h-10v-1.25zm11.25 0h10v1.25h-10v-1.25zm11.25 0h10v1.25h-10v-1.25zm11.25 0h10v1.25h-10v-1.25zm11.25 0h10v1.25h-10v-1.25zm11.25 0h10v1.25h-10v-1.25zM310 440h2.5v20H310v-20zm-6.25 8.75h2.5V440h2.5v20h-2.5v-10h-2.5v-1.25zm17.5-8.75h2.5v20h-2.5v-20zm-6.25 8.75h2.5V440h2.5v20h-2.5v-10H315v-1.25zm17.5-8.75h2.5v20h-2.5v-20zm-6.25 8.75h2.5V440h2.5v20h-2.5v-10h-2.5v-1.25zm17.5-8.75h2.5v20h-2.5v-20zm-6.25 8.75h2.5V440h2.5v20H340v-10h-2.5v-1.25zM355 440h2.5v20H355v-20zm-6.25 8.75h2.5V440h2.5v20h-2.5v-10h-2.5v-1.25zm17.5-8.75h2.5v20h-2.5v-20zm-6.25 8.75h2.5V440h2.5v20h-2.5v-10H360v-1.25zm17.5-8.75h2.5v20h-2.5v-20zm-6.25 8.75h2.5V440h2.5v20h-2.5v-10h-2.5v-1.25zM0 478.25h10v1.25H0v-1.25zm11.25 0h10v1.25h-10v-1.25zm11.25 0h10v1.25h-10v-1.25zm11.25 0h10v1.25h-10v-1.25zm11.25 0h10v1.25H45v-1.25zM62.5 462H65v20h-2.5v-20zm-6.25 8.75h2.5V462h2.5v20h-2.5v-10h-2.5v-1.25zm11.25 7.5h10v1.25h-10v-1.25zm11.25 0h10v1.25h-10v-1.25zm11.25 0h10v1.25H90v-1.25zm11.25 0h10v1.25h-10v-1.25zm11.25 0h10v1.25h-10v-1.25zm11.25 0h10v1.25h-10v-1.25zm11.25 0h10v1.25h-10v-1.25zm11.25 0h10v1.25h-10v-1.25zm11.25 0h10v1.25h-10v-1.25zm11.25 0h10v1.25h-10v-1.25zm17.5-16.25h2.5v20h-2.5v-20zm-6.25 8.75h2.5V462h2.5v20h-2.5v-10H180v-1.25zm17.5-8.75h2.5v20h-2.5v-20zm-6.25 8.75h2.5V462h2.5v20h-2.5v-10h-2.5v-1.25zm11.25 7.5h10v1.25h-10v-1.25zm11.25 0h10v1.25h-10v-1.25zm11.25 0h10v1.25h-10v-1.25zm11.25 0h10v1.25h-10v-1.25zm11.25 0h10v1.25h-10v-1.25zm11.25 0h10v1.25h-10v-1.25zm11.25 0h10v1.25h-10v-1.25zm11.25 0h10v1.25h-10v-1.25zm11.25 0h10v1.25h-10v-1.25zM310 462h2.5v20H310v-20zm-6.25 8.75h2.5V462h2.5v20h-2.5v-10h-2.5v-1.25zm17.5-8.75h2.5v20h-2.5v-20zm-6.25 8.75h2.5V462h2.5v20h-2.5v-10H315v-1.25zm17.5-8.75h2.5v20h-2.5v-20zm-6.25 8.75h2.5V462h2.5v20h-2.5v-10h-2.5v-1.25zm11.25 7.5h10v1.25h-10v-1.25zm11.25 0h10v1.25h-10v-1.25zm11.25 0h10v1.25h-10v-1.25zM377.5 462h2.5v20h-2.5v-20zm-6.25 8.75h2.5V462h2.5v20h-2.5v-10h-2.5v-1.25zm17.5-8.75h2.5v20h-2.5v-20zm-6.25 8.75h2.5V462h2.5v20H385v-10h-2.5v-1.25zM400 462h2.5v20H400v-20zm-6.25 8.75h2.5V462h2.5v20h-2.5v-10h-2.5v-1.25zM0 500.25h10v1.25H0v-1.25zm11.25 0h10v1.25h-10v-1.25zm11.25 0h10v1.25h-10v-1.25zm11.25 0h10v1.25h-10v-1.25zm11.25 0h10v1.25H45v-1.25zM62.5 484H65v20h-2.5v-20zm-6.25 8.75h2.5V484h2.5v20h-2.5v-10h-2.5v-1.25zm17.5-8.75h2.5v20h-2.5v-20zm-6.25 8.75H70V484h2.5v20H70v-10h-2.5v-1.25zm11.25 7.5h10v1.25h-10v-1.25zm11.25 0h10v1.25H90v-1.25zm11.25 0h10v1.25h-10v-1.25zm11.25 0h10v1.25h-10v-1.25zm11.25 0h10v1.25h-10v-1.25zm11.25 0h10v1.25h-10v-1.25zm11.25 0h10v1.25h-10v-1.25zm11.25 0h10v1.25h-10v-1.25zm11.25 0h10v1.25h-10v-1.25zm11.25 0h10v1.25h-10v-1.25zM197.5 484h2.5v20h-2.5v-20zm-6.25 8.75h2.5V484h2.5v20h-2.5v-10h-2.5v-1.25zm11.25 7.5h10v1.25h-10v-1.25zm11.25 0h10v1.25h-10v-1.25zm11.25 0h10v1.25h-10v-1.25zm11.25 0h10v1.25h-10v-1.25zm11.25 0h10v1.25h-10v-1.25zm11.25 0h10v1.25h-10v-1.25zm11.25 0h10v1.25h-10v-1.25zm11.25 0h10v1.25h-10v-1.25zm11.25 0h10v1.25h-10v-1.25zm11.25 0h10v1.25h-10v-1.25zm17.5-16.25h2.5v20h-2.5v-20zm-6.25 8.75h2.5V484h2.5v20h-2.5v-10H315v-1.25zm17.5-8.75h2.5v20h-2.5v-20zm-6.25 8.75h2.5V484h2.5v20h-2.5v-10h-2.5v-1.25zm11.25 7.5h10v1.25h-10v-1.25zm11.25 0h10v1.25h-10v-1.25zm11.25 0h10v1.25h-10v-1.25zm11.25 0h10v1.25h-10v-1.25zm11.25 0h10v1.25h-10v-1.25zm11.25 0h10v1.25h-10v-1.25zm17.5-16.25h2.5v20h-2.5v-20zm-6.25 8.75h2.5V484h2.5v20h-2.5v-10H405v-1.25zm17.5-8.75h2.5v20h-2.5v-20zm-6.25 8.75h2.5V484h2.5v20h-2.5v-10h-2.5v-1.25zM0 522.25h10v1.25H0v-1.25zm11.25 0h10v1.25h-10v-1.25zm11.25 0h10v1.25h-10v-1.25zm11.25 0h10v1.25h-10v-1.25zm11.25 0h10v1.25H45v-1.25zm11.25 0h10v1.25h-10v-1.25zM73.75 506h2.5v20h-2.5v-20zm-6.25 8.75H70V506h2.5v20H70v-10h-2.5v-1.25zm11.25 7.5h10v1.25h-10v-1.25zm11.25 0h10v1.25H90v-1.25zm11.25 0h10v1.25h-10v-1.25zm11.25 0h10v1.25h-10v-1.25zm11.25 0h10v1.25h-10v-1.25zm11.25 0h10v1.25h-10v-1.25zm11.25 0h10v1.25h-10v-1.25zm11.25 0h10v1.25h-10v-1.25zm11.25 0h10v1.25h-10v-1.25zm11.25 0h10v1.25h-10v-1.25zm11.25 0h10v1.25h-10v-1.25zm17.5-16.25h2.5v20h-2.5v-20zm-6.25 8.75h2.5V506h2.5v20H205v-10h-2.5v-1.25zm11.25 7.5h10v1.25h-10v-1.25zm11.25 0h10v1.25h-10v-1.25zm11.25 0h10v1.25h-10v-1.25zm11.25 0h10v1.25h-10v-1.25zm11.25 0h10v1.25h-10v-1.25zm11.25 0h10v1.25h-10v-1.25zm11.25 0h10v1.25h-10v-1.25zm11.25 0h10v1.25h-10v-1.25zm11.25 0h10v1.25h-10v-1.25zm11.25 0h10v1.25h-10v-1.25zM332.5 506h2.5v20h-2.5v-20zm-6.25 8.75h2.5V506h2.5v20h-2.5v-10h-2.5v-1.25zm11.25 7.5h10v1.25h-10v-1.25zm11.25 0h10v1.25h-10v-1.25zm11.25 0h10v1.25h-10v-1.25zm11.25 0h10v1.25h-10v-1.25zm11.25 0h10v1.25h-10v-1.25zM400 506h2.5v20H400v-20zm-6.25 8.75h2.5V506h2.5v20h-2.5v-10h-2.5v-1.25zm17.5-8.75h2.5v20h-2.5v-20zm-6.25 8.75h2.5V506h2.5v20h-2.5v-10H405v-1.25zm17.5-8.75h2.5v20h-2.5v-20zm-6.25 8.75h2.5V506h2.5v20h-2.5v-10h-2.5v-1.25zm17.5-8.75h2.5v20h-2.5v-20zm-6.25 8.75h2.5V506h2.5v20H430v-10h-2.5v-1.25zM0 544.25h10v1.25H0v-1.25zm11.25 0h10v1.25h-10v-1.25zm11.25 0h10v1.25h-10v-1.25zm11.25 0h10v1.25h-10v-1.25zm11.25 0h10v1.25H45v-1.25zm11.25 0h10v1.25h-10v-1.25zm11.25 0h10v1.25h-10v-1.25zM85 528h2.5v20H85v-20zm-6.25 8.75h2.5V528h2.5v20h-2.5v-10h-2.5v-1.25zm11.25 7.5h10v1.25H90v-1.25zm11.25 0h10v1.25h-10v-1.25zm11.25 0h10v1.25h-10v-1.25zm11.25 0h10v1.25h-10v-1.25zm11.25 0h10v1.25h-10v-1.25zm11.25 0h10v1.25h-10v-1.25zm11.25 0h10v1.25h-10v-1.25zm11.25 0h10v1.25h-10v-1.25zm11.25 0h10v1.25h-10v-1.25zm11.25 0h10v1.25h-10v-1.25zm11.25 0h10v1.25h-10v-1.25zM220 528h2.5v20H220v-20zm-6.25 8.75h2.5V528h2.5v20h-2.5v-10h-2.5v-1.25zm11.25 7.5h10v1.25h-10v-1.25zm11.25 0h10v1.25h-10v-1.25zm11.25 0h10v1.25h-10v-1.25zm11.25 0h10v1.25h-10v-1.25zm11.25 0h10v1.25h-10v-1.25zm11.25 0h10v1.25h-10v-1.25zm11.25 0h10v1.25h-10v-1.25zm11.25 0h10v1.25h-10v-1.25zm11.25 0h10v1.25h-10v-1.25zM332.5 528h2.5v20h-2.5v-20zm-6.25 8.75h2.5V528h2.5v20h-2.5v-10h-2.5v-1.25zm17.5-8.75h2.5v20h-2.5v-20zm-6.25 8.75h2.5V528h2.5v20H340v-10h-2.5v-1.25zm11.25 7.5h10v1.25h-10v-1.25zm11.25 0h10v1.25h-10v-1.25zm11.25 0h10v1.25h-10v-1.25zm11.25 0h10v1.25h-10v-1.25zm11.25 0h10v1.25h-10v-1.25zm11.25 0h10v1.25h-10v-1.25zM422.5 528h2.5v20h-2.5v-20zm-6.25 8.75h2.5V528h2.5v20h-2.5v-10h-2.5v-1.25zM0 566.25h10v1.25H0v-1.25zm11.25 0h10v1.25h-10v-1.25zm11.25 0h10v1.25h-10v-1.25zm11.25 0h10v1.25h-10v-1.25zm11.25 0h10v1.25H45v-1.25zm11.25 0h10v1.25h-10v-1.25zm11.25 0h10v1.25h-10v-1.25zM85 550h2.5v20H85v-20zm-6.25 8.75h2.5V550h2.5v20h-2.5v-10h-2.5v-1.25zm17.5-8.75h2.5v20h-2.5v-20zM90 558.75h2.5V550H95v20h-2.5v-10H90v-1.25zm11.25 7.5h10v1.25h-10v-1.25zm11.25 0h10v1.25h-10v-1.25zm11.25 0h10v1.25h-10v-1.25zm11.25 0h10v1.25h-10v-1.25zm11.25 0h10v1.25h-10v-1.25zm11.25 0h10v1.25h-10v-1.25zm11.25 0h10v1.25h-10v-1.25zm11.25 0h10v1.25h-10v-1.25zm11.25 0h10v1.25h-10v-1.25zm11.25 0h10v1.25h-10v-1.25zM220 550h2.5v20H220v-20zm-6.25 8.75h2.5V550h2.5v20h-2.5v-10h-2.5v-1.25zm17.5-8.75h2.5v20h-2.5v-20zm-6.25 8.75h2.5V550h2.5v20h-2.5v-10H225v-1.25zm11.25 7.5h10v1.25h-10v-1.25zm11.25 0h10v1.25h-10v-1.25zm11.25 0h10v1.25h-10v-1.25zm11.25 0h10v1.25h-10v-1.25zm11.25 0h10v1.25h-10v-1.25zm11.25 0h10v1.25h-10v-1.25zm11.25 0h10v1.25h-10v-1.25zm11.25 0h10v1.25h-10v-1.25zM332.5 550h2.5v20h-2.5v-20zm-6.25 8.75h2.5V550h2.5v20h-2.5v-10h-2.5v-1.25zm17.5-8.75h2.5v20h-2.5v-20zm-6.25 8.75h2.5V550h2.5v20H340v-10h-2.5v-1.25zM355 550h2.5v20H355v-20zm-6.25 8.75h2.5V550h2.5v20h-2.5v-10h-2.5v-1.25zm11.25 7.5h10v1.25h-10v-1.25zm11.25 0h10v1.25h-10v-1.25zm11.25 0h10v1.25h-10v-1.25zm11.25 0h10v1.25h-10v-1.25zm17.5-16.25h2.5v20h-2.5v-20zm-6.25 8.75h2.5V550h2.5v20h-2.5v-10H405v-1.25zm17.5-8.75h2.5v20h-2.5v-20zm-6.25 8.75h2.5V550h2.5v20h-2.5v-10h-2.5v-1.25zM0 588.25h10v1.25H0v-1.25zm11.25 0h10v1.25h-10v-1.25zm11.25 0h10v1.25h-10v-1.25zm11.25 0h10v1.25h-10v-1.25zm11.25 0h10v1.25H45v-1.25zm11.25 0h10v1.25h-10v-1.25zm11.25 0h10v1.25h-10v-1.25zm11.25 0h10v1.25h-10v-1.25zM96.25 572h2.5v20h-2.5v-20zM90 580.75h2.5V572H95v20h-2.5v-10H90v-1.25zm17.5-8.75h2.5v20h-2.5v-20zm-6.25 8.75h2.5V572h2.5v20h-2.5v-10h-2.5v-1.25zm11.25 7.5h10v1.25h-10v-1.25zm11.25 0h10v1.25h-10v-1.25zm11.25 0h10v1.25h-10v-1.25zm11.25 0h10v1.25h-10v-1.25zm11.25 0h10v1.25h-10v-1.25zm11.25 0h10v1.25h-10v-1.25zm11.25 0h10v1.25h-10v-1.25zm11.25 0h10v1.25h-10v-1.25zm11.25 0h10v1.25h-10v-1.25zm11.25 0h10v1.25h-10v-1.25zm17.5-16.25h2.5v20h-2.5v-20zm-6.25 8.75h2.5V572h2.5v20h-2.5v-10H225v-1.25zm17.5-8.75h2.5v20h-2.5v-20zm-6.25 8.75h2.5V572h2.5v20h-2.5v-10h-2.5v-1.25zm11.25 7.5h10v1.25h-10v-1.25zm11.25 0h10v1.25h-10v-1.25zm11.25 0h10v1.25h-10v-1.25zm11.25 0h10v1.25h-10v-1.25zm11.25 0h10v1.25h-10v-1.25zm11.25 0h10v1.25h-10v-1.25zm11.25 0h10v1.25h-10v-1.25zm11.25 0h10v1.25h-10v-1.25zm17.5-16.25h2.5v20h-2.5v-20zm-6.25 8.75h2.5V572h2.5v20H340v-10h-2.5v-1.25zM355 572h2.5v20H355v-20zm-6.25 8.75h2.5V572h2.5v20h-2.5v-10h-2.5v-1.25zm17.5-8.75h2.5v20h-2.5v-20zm-6.25 8.75h2.5V572h2.5v20h-2.5v-10H360v-1.25zm17.5-8.75h2.5v20h-2.5v-20zm-6.25 8.75h2.5V572h2.5v20h-2.5v-10h-2.5v-1.25zm17.5-8.75h2.5v20h-2.5v-20zm-6.25 8.75h2.5V572h2.5v20H385v-10h-2.5v-1.25zM400 572h2.5v20H400v-20zm-6.25 8.75h2.5V572h2.5v20h-2.5v-10h-2.5v-1.25zM0 610.25h10v1.25H0v-1.25zm11.25 0h10v1.25h-10v-1.25zm11.25 0h10v1.25h-10v-1.25zm11.25 0h10v1.25h-10v-1.25zm11.25 0h10v1.25H45v-1.25zm11.25 0h10v1.25h-10v-1.25zm11.25 0h10v1.25h-10v-1.25zm11.25 0h10v1.25h-10v-1.25zm11.25 0h10v1.25H90v-1.25zM107.5 594h2.5v20h-2.5v-20zm-6.25 8.75h2.5V594h2.5v20h-2.5v-10h-2.5v-1.25zm17.5-8.75h2.5v20h-2.5v-20zm-6.25 8.75h2.5V594h2.5v20H115v-10h-2.5v-1.25zM130 594h2.5v20H130v-20zm-6.25 8.75h2.5V594h2.5v20h-2.5v-10h-2.5v-1.25zm17.5-8.75h2.5v20h-2.5v-20zm-6.25 8.75h2.5V594h2.5v20h-2.5v-10H135v-1.25zm11.25 7.5h10v1.25h-10v-1.25zm11.25 0h10v1.25h-10v-1.25zm11.25 0h10v1.25h-10v-1.25zm11.25 0h10v1.25h-10v-1.25zm11.25 0h10v1.25h-10v-1.25zm11.25 0h10v1.25h-10v-1.25zm11.25 0h10v1.25h-10v-1.25zm11.25 0h10v1.25h-10v-1.25zM242.5 594h2.5v20h-2.5v-20zm-6.25 8.75h2.5V594h2.5v20h-2.5v-10h-2.5v-1.25zm11.25 7.5h10v1.25h-10v-1.25zm11.25 0h10v1.25h-10v-1.25zm11.25 0h10v1.25h-10v-1.25zm11.25 0h10v1.25h-10v-1.25zm11.25 0h10v1.25h-10v-1.25zm11.25 0h10v1.25h-10v-1.25zm11.25 0h10v1.25h-10v-1.25zm11.25 0h10v1.25h-10v-1.25zm11.25 0h10v1.25h-10v-1.25zm11.25 0h10v1.25h-10v-1.25zm17.5-16.25h2.5v20h-2.5v-20zm-6.25 8.75h2.5V594h2.5v20h-2.5v-10H360v-1.25zm17.5-8.75h2.5v20h-2.5v-20zm-6.25 8.75h2.5V594h2.5v20h-2.5v-10h-2.5v-1.25zm17.5-8.75h2.5v20h-2.5v-20zm-6.25 8.75h2.5V594h2.5v20H385v-10h-2.5v-1.25zM400 594h2.5v20H400v-20zm-6.25 8.75h2.5V594h2.5v20h-2.5v-10h-2.5v-1.25zm17.5-8.75h2.5v20h-2.5v-20zm-6.25 8.75h2.5V594h2.5v20h-2.5v-10H405v-1.25zM0 632.25h10v1.25H0v-1.25zm11.25 0h10v1.25h-10v-1.25zm11.25 0h10v1.25h-10v-1.25zm11.25 0h10v1.25h-10v-1.25zm11.25 0h10v1.25H45v-1.25zm11.25 0h10v1.25h-10v-1.25zm11.25 0h10v1.25h-10v-1.25zm11.25 0h10v1.25h-10v-1.25zm11.25 0h10v1.25H90v-1.25zm11.25 0h10v1.25h-10v-1.25zm17.5-16.25h2.5v20h-2.5v-20zm-6.25 8.75h2.5V616h2.5v20H115v-10h-2.5v-1.25zM130 616h2.5v20H130v-20zm-6.25 8.75h2.5V616h2.5v20h-2.5v-10h-2.5v-1.25zm17.5-8.75h2.5v20h-2.5v-20zm-6.25 8.75h2.5V616h2.5v20h-2.5v-10H135v-1.25zm17.5-8.75h2.5v20h-2.5v-20zm-6.25 8.75h2.5V616h2.5v20h-2.5v-10h-2.5v-1.25zm17.5-8.75h2.5v20h-2.5v-20zm-6.25 8.75h2.5V616h2.5v20H160v-10h-2.5v-1.25zM175 616h2.5v20H175v-20zm-6.25 8.75h2.5V616h2.5v20h-2.5v-10h-2.5v-1.25zm17.5-8.75h2.5v20h-2.5v-20zm-6.25 8.75h2.5V616h2.5v20h-2.5v-10H180v-1.25zm17.5-8.75h2.5v20h-2.5v-20zm-6.25 8.75h2.5V616h2.5v20h-2.5v-10h-2.5v-1.25zm17.5-8.75h2.5v20h-2.5v-20zm-6.25 8.75h2.5V616h2.5v20H205v-10h-2.5v-1.25zM220 616h2.5v20H220v-20zm-6.25 8.75h2.5V616h2.5v20h-2.5v-10h-2.5v-1.25zm17.5-8.75h2.5v20h-2.5v-20zm-6.25 8.75h2.5V616h2.5v20h-2.5v-10H225v-1.25zm17.5-8.75h2.5v20h-2.5v-20zm-6.25 8.75h2.5V616h2.5v20h-2.5v-10h-2.5v-1.25zm17.5-8.75h2.5v20h-2.5v-20zm-6.25 8.75h2.5V616h2.5v20H250v-10h-2.5v-1.25zm11.25 7.5h10v1.25h-10v-1.25zm11.25 0h10v1.25h-10v-1.25zm11.25 0h10v1.25h-10v-1.25zm11.25 0h10v1.25h-10v-1.25zm11.25 0h10v1.25h-10v-1.25zm11.25 0h10v1.25h-10v-1.25zm11.25 0h10v1.25h-10v-1.25zm11.25 0h10v1.25h-10v-1.25zm11.25 0h10v1.25h-10v-1.25zm11.25 0h10v1.25h-10v-1.25zM377.5 616h2.5v20h-2.5v-20zm-6.25 8.75h2.5V616h2.5v20h-2.5v-10h-2.5v-1.25zm17.5-8.75h2.5v20h-2.5v-20zm-6.25 8.75h2.5V616h2.5v20H385v-10h-2.5v-1.25zM400 616h2.5v20H400v-20zm-6.25 8.75h2.5V616h2.5v20h-2.5v-10h-2.5v-1.25zm17.5-8.75h2.5v20h-2.5v-20zm-6.25 8.75h2.5V616h2.5v20h-2.5v-10H405v-1.25zm17.5-8.75h2.5v20h-2.5v-20zm-6.25 8.75h2.5V616h2.5v20h-2.5v-10h-2.5v-1.25zM0 654.25h10v1.25H0v-1.25zm11.25 0h10v1.25h-10v-1.25zm11.25 0h10v1.25h-10v-1.25zm11.25 0h10v1.25h-10v-1.25zm11.25 0h10v1.25H45v-1.25zm11.25 0h10v1.25h-10v-1.25zm11.25 0h10v1.25h-10v-1.25zm11.25 0h10v1.25h-10v-1.25zm11.25 0h10v1.25H90v-1.25zm11.25 0h10v1.25h-10v-1.25zm11.25 0h10v1.25h-10v-1.25zM130 638h2.5v20H130v-20zm-6.25 8.75h2.5V638h2.5v20h-2.5v-10h-2.5v-1.25zm17.5-8.75h2.5v20h-2.5v-20zm-6.25 8.75h2.5V638h2.5v20h-2.5v-10H135v-1.25zm17.5-8.75h2.5v20h-2.5v-20zm-6.25 8.75h2.5V638h2.5v20h-2.5v-10h-2.5v-1.25zm17.5-8.75h2.5v20h-2.5v-20zm-6.25 8.75h2.5V638h2.5v20H160v-10h-2.5v-1.25zM175 638h2.5v20H175v-20zm-6.25 8.75h2.5V638h2.5v20h-2.5v-10h-2.5v-1.25zm17.5-8.75h2.5v20h-2.5v-20zm-6.25 8.75h2.5V638h2.5v20h-2.5v-10H180v-1.25zm17.5-8.75h2.5v20h-2.5v-20zm-6.25 8.75h2.5V638h2.5v20h-2.5v-10h-2.5v-1.25zm17.5-8.75h2.5v20h-2.5v-20zm-6.25 8.75h2.5V638h2.5v20H205v-10h-2.5v-1.25zM220 638h2.5v20H220v-20zm-6.25 8.75h2.5V638h2.5v20h-2.5v-10h-2.5v-1.25zm17.5-8.75h2.5v20h-2.5v-20zm-6.25 8.75h2.5V638h2.5v20h-2.5v-10H225v-1.25zm17.5-8.75h2.5v20h-2.5v-20zm-6.25 8.75h2.5V638h2.5v20h-2.5v-10h-2.5v-1.25zm17.5-8.75h2.5v20h-2.5v-20zm-6.25 8.75h2.5V638h2.5v20H250v-10h-2.5v-1.25zM265 638h2.5v20H265v-20zm-6.25 8.75h2.5V638h2.5v20h-2.5v-10h-2.5v-1.25zm11.25 7.5h10v1.25h-10v-1.25zm11.25 0h10v1.25h-10v-1.25zm11.25 0h10v1.25h-10v-1.25zm11.25 0h10v1.25h-10v-1.25zm11.25 0h10v1.25h-10v-1.25zm11.25 0h10v1.25h-10v-1.25zm11.25 0h10v1.25h-10v-1.25zm11.25 0h10v1.25h-10v-1.25zm11.25 0h10v1.25h-10v-1.25zm11.25 0h10v1.25h-10v-1.25zm11.25 0h10v1.25h-10v-1.25zM400 638h2.5v20H400v-20zm-6.25 8.75h2.5V638h2.5v20h-2.5v-10h-2.5v-1.25zm17.5-8.75h2.5v20h-2.5v-20zm-6.25 8.75h2.5V638h2.5v20h-2.5v-10H405v-1.25zm17.5-8.75h2.5v20h-2.5v-20zm-6.25 8.75h2.5V638h2.5v20h-2.5v-10h-2.5v-1.25zM0 676.25h10v1.25H0v-1.25zm11.25 0h10v1.25h-10v-1.25zm11.25 0h10v1.25h-10v-1.25zm11.25 0h10v1.25h-10v-1.25zm11.25 0h10v1.25H45v-1.25zm11.25 0h10v1.25h-10v-1.25zm11.25 0h10v1.25h-10v-1.25zm11.25 0h10v1.25h-10v-1.25zm11.25 0h10v1.25H90v-1.25zm11.25 0h10v1.25h-10v-1.25zm11.25 0h10v1.25h-10v-1.25zM130 660h2.5v20H130v-20zm-6.25 8.75h2.5V660h2.5v20h-2.5v-10h-2.5v-1.25zm17.5-8.75h2.5v20h-2.5v-20zm-6.25 8.75h2.5V660h2.5v20h-2.5v-10H135v-1.25zm17.5-8.75h2.5v20h-2.5v-20zm-6.25 8.75h2.5V660h2.5v20h-2.5v-10h-2.5v-1.25zm17.5-8.75h2.5v20h-2.5v-20zm-6.25 8.75h2.5V660h2.5v20H160v-10h-2.5v-1.25zM175 660h2.5v20H175v-20zm-6.25 8.75h2.5V660h2.5v20h-2.5v-10h-2.5v-1.25zm17.5-8.75h2.5v20h-2.5v-20zm-6.25 8.75h2.5V660h2.5v20h-2.5v-10H180v-1.25zm17.5-8.75h2.5v20h-2.5v-20zm-6.25 8.75h2.5V660h2.5v20h-2.5v-10h-2.5v-1.25zm17.5-8.75h2.5v20h-2.5v-20zm-6.25 8.75h2.5V660h2.5v20H205v-10h-2.5v-1.25zM220 660h2.5v20H220v-20zm-6.25 8.75h2.5V660h2.5v20h-2.5v-10h-2.5v-1.25zm17.5-8.75h2.5v20h-2.5v-20zm-6.25 8.75h2.5V660h2.5v20h-2.5v-10H225v-1.25zm17.5-8.75h2.5v20h-2.5v-20zm-6.25 8.75h2.5V660h2.5v20h-2.5v-10h-2.5v-1.25zm17.5-8.75h2.5v20h-2.5v-20zm-6.25 8.75h2.5V660h2.5v20H250v-10h-2.5v-1.25zM265 660h2.5v20H265v-20zm-6.25 8.75h2.5V660h2.5v20h-2.5v-10h-2.5v-1.25zm11.25 7.5h10v1.25h-10v-1.25zm11.25 0h10v1.25h-10v-1.25zm11.25 0h10v1.25h-10v-1.25zm11.25 0h10v1.25h-10v-1.25zm11.25 0h10v1.25h-10v-1.25zm11.25 0h10v1.25h-10v-1.25zm11.25 0h10v1.25h-10v-1.25zm11.25 0h10v1.25h-10v-1.25zm11.25 0h10v1.25h-10v-1.25zm11.25 0h10v1.25h-10v-1.25zm11.25 0h10v1.25h-10v-1.25zM400 660h2.5v20H400v-20zm-6.25 8.75h2.5V660h2.5v20h-2.5v-10h-2.5v-1.25zm17.5-8.75h2.5v20h-2.5v-20zm-6.25 8.75h2.5V660h2.5v20h-2.5v-10H405v-1.25zm17.5-8.75h2.5v20h-2.5v-20zm-6.25 8.75h2.5V660h2.5v20h-2.5v-10h-2.5v-1.25zM0 698.25h10v1.25H0v-1.25zm11.25 0h10v1.25h-10v-1.25zm11.25 0h10v1.25h-10v-1.25zm11.25 0h10v1.25h-10v-1.25zm11.25 0h10v1.25H45v-1.25zm11.25 0h10v1.25h-10v-1.25zm11.25 0h10v1.25h-10v-1.25zm11.25 0h10v1.25h-10v-1.25zm11.25 0h10v1.25H90v-1.25zm11.25 0h10v1.25h-10v-1.25zm11.25 0h10v1.25h-10v-1.25zm11.25 0h10v1.25h-10v-1.25zm11.25 0h10v1.25h-10v-1.25zM152.5 682h2.5v20h-2.5v-20zm-6.25 8.75h2.5V682h2.5v20h-2.5v-10h-2.5v-1.25zm17.5-8.75h2.5v20h-2.5v-20zm-6.25 8.75h2.5V682h2.5v20H160v-10h-2.5v-1.25zM175 682h2.5v20H175v-20zm-6.25 8.75h2.5V682h2.5v20h-2.5v-10h-2.5v-1.25zm17.5-8.75h2.5v20h-2.5v-20zm-6.25 8.75h2.5V682h2.5v20h-2.5v-10H180v-1.25zm17.5-8.75h2.5v20h-2.5v-20zm-6.25 8.75h2.5V682h2.5v20h-2.5v-10h-2.5v-1.25zm17.5-8.75h2.5v20h-2.5v-20zm-6.25 8.75h2.5V682h2.5v20H205v-10h-2.5v-1.25zM220 682h2.5v20H220v-20zm-6.25 8.75h2.5V682h2.5v20h-2.5v-10h-2.5v-1.25zm17.5-8.75h2.5v20h-2.5v-20zm-6.25 8.75h2.5V682h2.5v20h-2.5v-10H225v-1.25zm17.5-8.75h2.5v20h-2.5v-20zm-6.25 8.75h2.5V682h2.5v20h-2.5v-10h-2.5v-1.25zm17.5-8.75h2.5v20h-2.5v-20zm-6.25 8.75h2.5V682h2.5v20H250v-10h-2.5v-1.25zM265 682h2.5v20H265v-20zm-6.25 8.75h2.5V682h2.5v20h-2.5v-10h-2.5v-1.25zm17.5-8.75h2.5v20h-2.5v-20zm-6.25 8.75h2.5V682h2.5v20h-2.5v-10H270v-1.25zm11.25 7.5h10v1.25h-10v-1.25zm11.25 0h10v1.25h-10v-1.25zm11.25 0h10v1.25h-10v-1.25zm11.25 0h10v1.25h-10v-1.25zm11.25 0h10v1.25h-10v-1.25zm11.25 0h10v1.25h-10v-1.25zm11.25 0h10v1.25h-10v-1.25zm11.25 0h10v1.25h-10v-1.25zm11.25 0h10v1.25h-10v-1.25zm11.25 0h10v1.25h-10v-1.25zM400 682h2.5v20H400v-20zm-6.25 8.75h2.5V682h2.5v20h-2.5v-10h-2.5v-1.25zm17.5-8.75h2.5v20h-2.5v-20zm-6.25 8.75h2.5V682h2.5v20h-2.5v-10H405v-1.25zm17.5-8.75h2.5v20h-2.5v-20zm-6.25 8.75h2.5V682h2.5v20h-2.5v-10h-2.5v-1.25zm17.5-8.75h2.5v20h-2.5v-20zm-6.25 8.75h2.5V682h2.5v20H430v-10h-2.5v-1.25zM0 720.25h10v1.25H0v-1.25zm11.25 0h10v1.25h-10v-1.25zm11.25 0h10v1.25h-10v-1.25zm11.25 0h10v1.25h-10v-1.25zm11.25 0h10v1.25H45v-1.25zm11.25 0h10v1.25h-10v-1.25zm11.25 0h10v1.25h-10v-1.25zm11.25 0h10v1.25h-10v-1.25zm11.25 0h10v1.25H90v-1.25zm11.25 0h10v1.25h-10v-1.25zm11.25 0h10v1.25h-10v-1.25zm11.25 0h10v1.25h-10v-1.25zm11.25 0h10v1.25h-10v-1.25zM152.5 704h2.5v20h-2.5v-20zm-6.25 8.75h2.5V704h2.5v20h-2.5v-10h-2.5v-1.25zm17.5-8.75h2.5v20h-2.5v-20zm-6.25 8.75h2.5V704h2.5v20H160v-10h-2.5v-1.25zM175 704h2.5v20H175v-20zm-6.25 8.75h2.5V704h2.5v20h-2.5v-10h-2.5v-1.25zm17.5-8.75h2.5v20h-2.5v-20zm-6.25 8.75h2.5V704h2.5v20h-2.5v-10H180v-1.25zm17.5-8.75h2.5v20h-2.5v-20zm-6.25 8.75h2.5V704h2.5v20h-2.5v-10h-2.5v-1.25zm17.5-8.75h2.5v20h-2.5v-20zm-6.25 8.75h2.5V704h2.5v20H205v-10h-2.5v-1.25zM220 704h2.5v20H220v-20zm-6.25 8.75h2.5V704h2.5v20h-2.5v-10h-2.5v-1.25zm17.5-8.75h2.5v20h-2.5v-20zm-6.25 8.75h2.5V704h2.5v20h-2.5v-10H225v-1.25zm17.5-8.75h2.5v20h-2.5v-20zm-6.25 8.75h2.5V704h2.5v20h-2.5v-10h-2.5v-1.25zm17.5-8.75h2.5v20h-2.5v-20zm-6.25 8.75h2.5V704h2.5v20H250v-10h-2.5v-1.25zM265 704h2.5v20H265v-20zm-6.25 8.75h2.5V704h2.5v20h-2.5v-10h-2.5v-1.25zm17.5-8.75h2.5v20h-2.5v-20zm-6.25 8.75h2.5V704h2.5v20h-2.5v-10H270v-1.25zm17.5-8.75h2.5v20h-2.5v-20zm-6.25 8.75h2.5V704h2.5v20h-2.5v-10h-2.5v-1.25zm11.25 7.5h10v1.25h-10v-1.25zm11.25 0h10v1.25h-10v-1.25zm11.25 0h10v1.25h-10v-1.25zm11.25 0h10v1.25h-10v-1.25zm11.25 0h10v1.25h-10v-1.25zm11.25 0h10v1.25h-10v-1.25zm11.25 0h10v1.25h-10v-1.25zm11.25 0h10v1.25h-10v-1.25zm11.25 0h10v1.25h-10v-1.25zM400 704h2.5v20H400v-20zm-6.25 8.75h2.5V704h2.5v20h-2.5v-10h-2.5v-1.25zm17.5-8.75h2.5v20h-2.5v-20zm-6.25 8.75h2.5V704h2.5v20h-2.5v-10H405v-1.25zm17.5-8.75h2.5v20h-2.5v-20zm-6.25 8.75h2.5V704h2.5v20h-2.5v-10h-2.5v-1.25zm17.5-8.75h2.5v20h-2.5v-20zm-6.25 8.75h2.5V704h2.5v20H430v-10h-2.5v-1.25zM0 742.25h10v1.25H0v-1.25zm11.25 0h10v1.25h-10v-1.25zm11.25 0h10v1.25h-10v-1.25zm11.25 0h10v1.25h-10v-1.25zm11.25 0h10v1.25H45v-1.25zm11.25 0h10v1.25h-10v-1.25zm11.25 0h10v1.25h-10v-1.25zm11.25 0h10v1.25h-10v-1.25zm11.25 0h10v1.25H90v-1.25zm11.25 0h10v1.25h-10v-1.25zm11.25 0h10v1.25h-10v-1.25zm11.25 0h10v1.25h-10v-1.25zm11.25 0h10v1.25h-10v-1.25zM152.5 726h2.5v20h-2.5v-20zm-6.25 8.75h2.5V726h2.5v20h-2.5v-10h-2.5v-1.25zm17.5-8.75h2.5v20h-2.5v-20zm-6.25 8.75h2.5V726h2.5v20H160v-10h-2.5v-1.25zM175 726h2.5v20H175v-20zm-6.25 8.75h2.5V726h2.5v20h-2.5v-10h-2.5v-1.25zm17.5-8.75h2.5v20h-2.5v-20zm-6.25 8.75h2.5V726h2.5v20h-2.5v-10H180v-1.25zm17.5-8.75h2.5v20h-2.5v-20zm-6.25 8.75h2.5V726h2.5v20h-2.5v-10h-2.5v-1.25zm17.5-8.75h2.5v20h-2.5v-20zm-6.25 8.75h2.5V726h2.5v20H205v-10h-2.5v-1.25zM220 726h2.5v20H220v-20zm-6.25 8.75h2.5V726h2.5v20h-2.5v-10h-2.5v-1.25zm17.5-8.75h2.5v20h-2.5v-20zm-6.25 8.75h2.5V726h2.5v20h-2.5v-10H225v-1.25zm17.5-8.75h2.5v20h-2.5v-20zm-6.25 8.75h2.5V726h2.5v20h-2.5v-10h-2.5v-1.25zm17.5-8.75h2.5v20h-2.5v-20zm-6.25 8.75h2.5V726h2.5v20H250v-10h-2.5v-1.25zM265 726h2.5v20H265v-20zm-6.25 8.75h2.5V726h2.5v20h-2.5v-10h-2.5v-1.25zm17.5-8.75h2.5v20h-2.5v-20zm-6.25 8.75h2.5V726h2.5v20h-2.5v-10H270v-1.25zm17.5-8.75h2.5v20h-2.5v-20zm-6.25 8.75h2.5V726h2.5v20h-2.5v-10h-2.5v-1.25zm17.5-8.75h2.5v20h-2.5v-20zm-6.25 8.75h2.5V726h2.5v20H295v-10h-2.5v-1.25zM310 726h2.5v20H310v-20zm-6.25 8.75h2.5V726h2.5v20h-2.5v-10h-2.5v-1.25zm17.5-8.75h2.5v20h-2.5v-20zm-6.25 8.75h2.5V726h2.5v20h-2.5v-10H315v-1.25zm17.5-8.75h2.5v20h-2.5v-20zm-6.25 8.75h2.5V726h2.5v20h-2.5v-10h-2.5v-1.25zm17.5-8.75h2.5v20h-2.5v-20zm-6.25 8.75h2.5V726h2.5v20H340v-10h-2.5v-1.25zM355 726h2.5v20H355v-20zm-6.25 8.75h2.5V726h2.5v20h-2.5v-10h-2.5v-1.25zm17.5-8.75h2.5v20h-2.5v-20zm-6.25 8.75h2.5V726h2.5v20h-2.5v-10H360v-1.25zm17.5-8.75h2.5v20h-2.5v-20zm-6.25 8.75h2.5V726h2.5v20h-2.5v-10h-2.5v-1.25zm17.5-8.75h2.5v20h-2.5v-20zm-6.25 8.75h2.5V726h2.5v20H385v-10h-2.5v-1.25zM400 726h2.5v20H400v-20zm-6.25 8.75h2.5V726h2.5v20h-2.5v-10h-2.5v-1.25zm17.5-8.75h2.5v20h-2.5v-20zm-6.25 8.75h2.5V726h2.5v20h-2.5v-10H405v-1.25zm17.5-8.75h2.5v20h-2.5v-20zm-6.25 8.75h2.5V726h2.5v20h-2.5v-10h-2.5v-1.25zm17.5-8.75h2.5v20h-2.5v-20zm-6.25 8.75h2.5V726h2.5v20H430v-10h-2.5v-1.25zM0 764.25h10v1.25H0v-1.25zm11.25 0h10v1.25h-10v-1.25zm11.25 0h10v1.25h-10v-1.25zm11.25 0h10v1.25h-10v-1.25zm11.25 0h10v1.25H45v-1.25zm11.25 0h10v1.25h-10v-1.25zm11.25 0h10v1.25h-10v-1.25zm11.25 0h10v1.25h-10v-1.25zm11.25 0h10v1.25H90v-1.25zm11.25 0h10v1.25h-10v-1.25zm11.25 0h10v1.25h-10v-1.25zm11.25 0h10v1.25h-10v-1.25zm17.5-16.25h2.5v20h-2.5v-20zm-6.25 8.75h2.5V748h2.5v20h-2.5v-10H135v-1.25zm17.5-8.75h2.5v20h-2.5v-20zm-6.25 8.75h2.5V748h2.5v20h-2.5v-10h-2.5v-1.25zm17.5-8.75h2.5v20h-2.5v-20zm-6.25 8.75h2.5V748h2.5v20H160v-10h-2.5v-1.25zM175 748h2.5v20H175v-20zm-6.25 8.75h2.5V748h2.5v20h-2.5v-10h-2.5v-1.25zm17.5-8.75h2.5v20h-2.5v-20zm-6.25 8.75h2.5V748h2.5v20h-2.5v-10H180v-1.25zm17.5-8.75h2.5v20h-2.5v-20zm-6.25 8.75h2.5V748h2.5v20h-2.5v-10h-2.5v-1.25zm17.5-8.75h2.5v20h-2.5v-20zm-6.25 8.75h2.5V748h2.5v20H205v-10h-2.5v-1.25zM220 748h2.5v20H220v-20zm-6.25 8.75h2.5V748h2.5v20h-2.5v-10h-2.5v-1.25zm17.5-8.75h2.5v20h-2.5v-20zm-6.25 8.75h2.5V748h2.5v20h-2.5v-10H225v-1.25zm17.5-8.75h2.5v20h-2.5v-20zm-6.25 8.75h2.5V748h2.5v20h-2.5v-10h-2.5v-1.25zm17.5-8.75h2.5v20h-2.5v-20zm-6.25 8.75h2.5V748h2.5v20H250v-10h-2.5v-1.25zM265 748h2.5v20H265v-20zm-6.25 8.75h2.5V748h2.5v20h-2.5v-10h-2.5v-1.25zm17.5-8.75h2.5v20h-2.5v-20zm-6.25 8.75h2.5V748h2.5v20h-2.5v-10H270v-1.25zm17.5-8.75h2.5v20h-2.5v-20zm-6.25 8.75h2.5V748h2.5v20h-2.5v-10h-2.5v-1.25zm17.5-8.75h2.5v20h-2.5v-20zm-6.25 8.75h2.5V748h2.5v20H295v-10h-2.5v-1.25zM310 748h2.5v20H310v-20zm-6.25 8.75h2.5V748h2.5v20h-2.5v-10h-2.5v-1.25zm17.5-8.75h2.5v20h-2.5v-20zm-6.25 8.75h2.5V748h2.5v20h-2.5v-10H315v-1.25zm17.5-8.75h2.5v20h-2.5v-20zm-6.25 8.75h2.5V748h2.5v20h-2.5v-10h-2.5v-1.25zm17.5-8.75h2.5v20h-2.5v-20zm-6.25 8.75h2.5V748h2.5v20H340v-10h-2.5v-1.25zM355 748h2.5v20H355v-20zm-6.25 8.75h2.5V748h2.5v20h-2.5v-10h-2.5v-1.25zm17.5-8.75h2.5v20h-2.5v-20zm-6.25 8.75h2.5V748h2.5v20h-2.5v-10H360v-1.25zm17.5-8.75h2.5v20h-2.5v-20zm-6.25 8.75h2.5V748h2.5v20h-2.5v-10h-2.5v-1.25zm17.5-8.75h2.5v20h-2.5v-20zm-6.25 8.75h2.5V748h2.5v20H385v-10h-2.5v-1.25zM400 748h2.5v20H400v-20zm-6.25 8.75h2.5V748h2.5v20h-2.5v-10h-2.5v-1.25zm11.25 7.5h10v1.25h-10v-1.25zM422.5 748h2.5v20h-2.5v-20zm-6.25 8.75h2.5V748h2.5v20h-2.5v-10h-2.5v-1.25zm17.5-8.75h2.5v20h-2.5v-20zm-6.25 8.75h2.5V748h2.5v20H430v-10h-2.5v-1.25zM0 786.25h10v1.25H0v-1.25zm11.25 0h10v1.25h-10v-1.25zm11.25 0h10v1.25h-10v-1.25zm11.25 0h10v1.25h-10v-1.25zm11.25 0h10v1.25H45v-1.25zm11.25 0h10v1.25h-10v-1.25zm11.25 0h10v1.25h-10v-1.25zm11.25 0h10v1.25h-10v-1.25zm11.25 0h10v1.25H90v-1.25zm11.25 0h10v1.25h-10v-1.25zm11.25 0h10v1.25h-10v-1.25zM130 770h2.5v20H130v-20zm-6.25 8.75h2.5V770h2.5v20h-2.5v-10h-2.5v-1.25zm17.5-8.75h2.5v20h-2.5v-20zm-6.25 8.75h2.5V770h2.5v20h-2.5v-10H135v-1.25zm17.5-8.75h2.5v20h-2.5v-20zm-6.25 8.75h2.5V770h2.5v20h-2.5v-10h-2.5v-1.25zm17.5-8.75h2.5v20h-2.5v-20zm-6.25 8.75h2.5V770h2.5v20H160v-10h-2.5v-1.25zM175 770h2.5v20H175v-20zm-6.25 8.75h2.5V770h2.5v20h-2.5v-10h-2.5v-1.25zm17.5-8.75h2.5v20h-2.5v-20zm-6.25 8.75h2.5V770h2.5v20h-2.5v-10H180v-1.25zm17.5-8.75h2.5v20h-2.5v-20zm-6.25 8.75h2.5V770h2.5v20h-2.5v-10h-2.5v-1.25zm17.5-8.75h2.5v20h-2.5v-20zm-6.25 8.75h2.5V770h2.5v20H205v-10h-2.5v-1.25zM220 770h2.5v20H220v-20zm-6.25 8.75h2.5V770h2.5v20h-2.5v-10h-2.5v-1.25zm17.5-8.75h2.5v20h-2.5v-20zm-6.25 8.75h2.5V770h2.5v20h-2.5v-10H225v-1.25zm17.5-8.75h2.5v20h-2.5v-20zm-6.25 8.75h2.5V770h2.5v20h-2.5v-10h-2.5v-1.25zm17.5-8.75h2.5v20h-2.5v-20zm-6.25 8.75h2.5V770h2.5v20H250v-10h-2.5v-1.25zM265 770h2.5v20H265v-20zm-6.25 8.75h2.5V770h2.5v20h-2.5v-10h-2.5v-1.25zm17.5-8.75h2.5v20h-2.5v-20zm-6.25 8.75h2.5V770h2.5v20h-2.5v-10H270v-1.25zm17.5-8.75h2.5v20h-2.5v-20zm-6.25 8.75h2.5V770h2.5v20h-2.5v-10h-2.5v-1.25zm17.5-8.75h2.5v20h-2.5v-20zm-6.25 8.75h2.5V770h2.5v20H295v-10h-2.5v-1.25zM310 770h2.5v20H310v-20zm-6.25 8.75h2.5V770h2.5v20h-2.5v-10h-2.5v-1.25zm17.5-8.75h2.5v20h-2.5v-20zm-6.25 8.75h2.5V770h2.5v20h-2.5v-10H315v-1.25zm17.5-8.75h2.5v20h-2.5v-20zm-6.25 8.75h2.5V770h2.5v20h-2.5v-10h-2.5v-1.25zm11.25 7.5h10v1.25h-10v-1.25zm11.25 0h10v1.25h-10v-1.25zm11.25 0h10v1.25h-10v-1.25zm11.25 0h10v1.25h-10v-1.25zm11.25 0h10v1.25h-10v-1.25zm11.25 0h10v1.25h-10v-1.25zm11.25 0h10v1.25h-10v-1.25zm11.25 0h10v1.25h-10v-1.25zm17.5-16.25h2.5v20h-2.5v-20zm-6.25 8.75h2.5V770h2.5v20H430v-10h-2.5v-1.25zM0 808.25h10v1.25H0v-1.25zm11.25 0h10v1.25h-10v-1.25zm11.25 0h10v1.25h-10v-1.25zm11.25 0h10v1.25h-10v-1.25zm11.25 0h10v1.25H45v-1.25zm11.25 0h10v1.25h-10v-1.25zm11.25 0h10v1.25h-10v-1.25zm11.25 0h10v1.25h-10v-1.25zm11.25 0h10v1.25H90v-1.25zm11.25 0h10v1.25h-10v-1.25zm11.25 0h10v1.25h-10v-1.25zM130 792h2.5v20H130v-20zm-6.25 8.75h2.5V792h2.5v20h-2.5v-10h-2.5v-1.25zm17.5-8.75h2.5v20h-2.5v-20zm-6.25 8.75h2.5V792h2.5v20h-2.5v-10H135v-1.25zm17.5-8.75h2.5v20h-2.5v-20zm-6.25 8.75h2.5V792h2.5v20h-2.5v-10h-2.5v-1.25zm17.5-8.75h2.5v20h-2.5v-20zm-6.25 8.75h2.5V792h2.5v20H160v-10h-2.5v-1.25zM175 792h2.5v20H175v-20zm-6.25 8.75h2.5V792h2.5v20h-2.5v-10h-2.5v-1.25zm17.5-8.75h2.5v20h-2.5v-20zm-6.25 8.75h2.5V792h2.5v20h-2.5v-10H180v-1.25zm17.5-8.75h2.5v20h-2.5v-20zm-6.25 8.75h2.5V792h2.5v20h-2.5v-10h-2.5v-1.25zm17.5-8.75h2.5v20h-2.5v-20zm-6.25 8.75h2.5V792h2.5v20H205v-10h-2.5v-1.25zM220 792h2.5v20H220v-20zm-6.25 8.75h2.5V792h2.5v20h-2.5v-10h-2.5v-1.25zm17.5-8.75h2.5v20h-2.5v-20zm-6.25 8.75h2.5V792h2.5v20h-2.5v-10H225v-1.25zm17.5-8.75h2.5v20h-2.5v-20zm-6.25 8.75h2.5V792h2.5v20h-2.5v-10h-2.5v-1.25zm17.5-8.75h2.5v20h-2.5v-20zm-6.25 8.75h2.5V792h2.5v20H250v-10h-2.5v-1.25zM265 792h2.5v20H265v-20zm-6.25 8.75h2.5V792h2.5v20h-2.5v-10h-2.5v-1.25zm17.5-8.75h2.5v20h-2.5v-20zm-6.25 8.75h2.5V792h2.5v20h-2.5v-10H270v-1.25zm17.5-8.75h2.5v20h-2.5v-20zm-6.25 8.75h2.5V792h2.5v20h-2.5v-10h-2.5v-1.25zm17.5-8.75h2.5v20h-2.5v-20zm-6.25 8.75h2.5V792h2.5v20H295v-10h-2.5v-1.25zM310 792h2.5v20H310v-20zm-6.25 8.75h2.5V792h2.5v20h-2.5v-10h-2.5v-1.25zm17.5-8.75h2.5v20h-2.5v-20zm-6.25 8.75h2.5V792h2.5v20h-2.5v-10H315v-1.25zm17.5-8.75h2.5v20h-2.5v-20zm-6.25 8.75h2.5V792h2.5v20h-2.5v-10h-2.5v-1.25zm17.5-8.75h2.5v20h-2.5v-20zm-6.25 8.75h2.5V792h2.5v20H340v-10h-2.5v-1.25zM355 792h2.5v20H355v-20zm-6.25 8.75h2.5V792h2.5v20h-2.5v-10h-2.5v-1.25zm11.25 7.5h10v1.25h-10v-1.25zm11.25 0h10v1.25h-10v-1.25zm11.25 0h10v1.25h-10v-1.25zm11.25 0h10v1.25h-10v-1.25zm11.25 0h10v1.25h-10v-1.25zm11.25 0h10v1.25h-10v-1.25zm17.5-16.25h2.5v20h-2.5v-20zm-6.25 8.75h2.5V792h2.5v20H430v-10h-2.5v-1.25zM445 792h2.5v20H445v-20zm-6.25 8.75h2.5V792h2.5v20h-2.5v-10h-2.5v-1.25zM0 830.25h10v1.25H0v-1.25zm11.25 0h10v1.25h-10v-1.25zm11.25 0h10v1.25h-10v-1.25zm11.25 0h10v1.25h-10v-1.25zm11.25 0h10v1.25H45v-1.25zm11.25 0h10v1.25h-10v-1.25zm11.25 0h10v1.25h-10v-1.25zm11.25 0h10v1.25h-10v-1.25zm11.25 0h10v1.25H90v-1.25zm11.25 0h10v1.25h-10v-1.25zm17.5-16.25h2.5v20h-2.5v-20zm-6.25 8.75h2.5V814h2.5v20H115v-10h-2.5v-1.25zM130 814h2.5v20H130v-20zm-6.25 8.75h2.5V814h2.5v20h-2.5v-10h-2.5v-1.25zm17.5-8.75h2.5v20h-2.5v-20zm-6.25 8.75h2.5V814h2.5v20h-2.5v-10H135v-1.25zm17.5-8.75h2.5v20h-2.5v-20zm-6.25 8.75h2.5V814h2.5v20h-2.5v-10h-2.5v-1.25zm17.5-8.75h2.5v20h-2.5v-20zm-6.25 8.75h2.5V814h2.5v20H160v-10h-2.5v-1.25zM175 814h2.5v20H175v-20zm-6.25 8.75h2.5V814h2.5v20h-2.5v-10h-2.5v-1.25zm17.5-8.75h2.5v20h-2.5v-20zm-6.25 8.75h2.5V814h2.5v20h-2.5v-10H180v-1.25zm17.5-8.75h2.5v20h-2.5v-20zm-6.25 8.75h2.5V814h2.5v20h-2.5v-10h-2.5v-1.25zm17.5-8.75h2.5v20h-2.5v-20zm-6.25 8.75h2.5V814h2.5v20H205v-10h-2.5v-1.25zM220 814h2.5v20H220v-20zm-6.25 8.75h2.5V814h2.5v20h-2.5v-10h-2.5v-1.25zm17.5-8.75h2.5v20h-2.5v-20zm-6.25 8.75h2.5V814h2.5v20h-2.5v-10H225v-1.25zm17.5-8.75h2.5v20h-2.5v-20zm-6.25 8.75h2.5V814h2.5v20h-2.5v-10h-2.5v-1.25zm17.5-8.75h2.5v20h-2.5v-20zm-6.25 8.75h2.5V814h2.5v20H250v-10h-2.5v-1.25zM265 814h2.5v20H265v-20zm-6.25 8.75h2.5V814h2.5v20h-2.5v-10h-2.5v-1.25zm17.5-8.75h2.5v20h-2.5v-20zm-6.25 8.75h2.5V814h2.5v20h-2.5v-10H270v-1.25zm17.5-8.75h2.5v20h-2.5v-20zm-6.25 8.75h2.5V814h2.5v20h-2.5v-10h-2.5v-1.25zm17.5-8.75h2.5v20h-2.5v-20zm-6.25 8.75h2.5V814h2.5v20H295v-10h-2.5v-1.25zM310 814h2.5v20H310v-20zm-6.25 8.75h2.5V814h2.5v20h-2.5v-10h-2.5v-1.25zm17.5-8.75h2.5v20h-2.5v-20zm-6.25 8.75h2.5V814h2.5v20h-2.5v-10H315v-1.25zm17.5-8.75h2.5v20h-2.5v-20zm-6.25 8.75h2.5V814h2.5v20h-2.5v-10h-2.5v-1.25zm17.5-8.75h2.5v20h-2.5v-20zm-6.25 8.75h2.5V814h2.5v20H340v-10h-2.5v-1.25zM355 814h2.5v20H355v-20zm-6.25 8.75h2.5V814h2.5v20h-2.5v-10h-2.5v-1.25zm17.5-8.75h2.5v20h-2.5v-20zm-6.25 8.75h2.5V814h2.5v20h-2.5v-10H360v-1.25zm11.25 7.5h10v1.25h-10v-1.25zm11.25 0h10v1.25h-10v-1.25zm11.25 0h10v1.25h-10v-1.25zm11.25 0h10v1.25h-10v-1.25zm11.25 0h10v1.25h-10v-1.25zm11.25 0h10v1.25h-10v-1.25zM445 814h2.5v20H445v-20zm-6.25 8.75h2.5V814h2.5v20h-2.5v-10h-2.5v-1.25zM0 852.25h10v1.25H0v-1.25zm11.25 0h10v1.25h-10v-1.25zm11.25 0h10v1.25h-10v-1.25zm11.25 0h10v1.25h-10v-1.25zm11.25 0h10v1.25H45v-1.25zm11.25 0h10v1.25h-10v-1.25zm11.25 0h10v1.25h-10v-1.25zm11.25 0h10v1.25h-10v-1.25zm11.25 0h10v1.25H90v-1.25zm11.25 0h10v1.25h-10v-1.25zm11.25 0h10v1.25h-10v-1.25zM130 836h2.5v20H130v-20zm-6.25 8.75h2.5V836h2.5v20h-2.5v-10h-2.5v-1.25zm17.5-8.75h2.5v20h-2.5v-20zm-6.25 8.75h2.5V836h2.5v20h-2.5v-10H135v-1.25zm17.5-8.75h2.5v20h-2.5v-20zm-6.25 8.75h2.5V836h2.5v20h-2.5v-10h-2.5v-1.25zm17.5-8.75h2.5v20h-2.5v-20zm-6.25 8.75h2.5V836h2.5v20H160v-10h-2.5v-1.25zM175 836h2.5v20H175v-20zm-6.25 8.75h2.5V836h2.5v20h-2.5v-10h-2.5v-1.25zm17.5-8.75h2.5v20h-2.5v-20zm-6.25 8.75h2.5V836h2.5v20h-2.5v-10H180v-1.25zm17.5-8.75h2.5v20h-2.5v-20zm-6.25 8.75h2.5V836h2.5v20h-2.5v-10h-2.5v-1.25zm17.5-8.75h2.5v20h-2.5v-20zm-6.25 8.75h2.5V836h2.5v20H205v-10h-2.5v-1.25zM220 836h2.5v20H220v-20zm-6.25 8.75h2.5V836h2.5v20h-2.5v-10h-2.5v-1.25zm17.5-8.75h2.5v20h-2.5v-20zm-6.25 8.75h2.5V836h2.5v20h-2.5v-10H225v-1.25zm17.5-8.75h2.5v20h-2.5v-20zm-6.25 8.75h2.5V836h2.5v20h-2.5v-10h-2.5v-1.25zm17.5-8.75h2.5v20h-2.5v-20zm-6.25 8.75h2.5V836h2.5v20H250v-10h-2.5v-1.25zM265 836h2.5v20H265v-20zm-6.25 8.75h2.5V836h2.5v20h-2.5v-10h-2.5v-1.25zm17.5-8.75h2.5v20h-2.5v-20zm-6.25 8.75h2.5V836h2.5v20h-2.5v-10H270v-1.25zm17.5-8.75h2.5v20h-2.5v-20zm-6.25 8.75h2.5V836h2.5v20h-2.5v-10h-2.5v-1.25zm17.5-8.75h2.5v20h-2.5v-20zm-6.25 8.75h2.5V836h2.5v20H295v-10h-2.5v-1.25zM310 836h2.5v20H310v-20zm-6.25 8.75h2.5V836h2.5v20h-2.5v-10h-2.5v-1.25zm17.5-8.75h2.5v20h-2.5v-20zm-6.25 8.75h2.5V836h2.5v20h-2.5v-10H315v-1.25zm17.5-8.75h2.5v20h-2.5v-20zm-6.25 8.75h2.5V836h2.5v20h-2.5v-10h-2.5v-1.25zm17.5-8.75h2.5v20h-2.5v-20zm-6.25 8.75h2.5V836h2.5v20H340v-10h-2.5v-1.25zM355 836h2.5v20H355v-20zm-6.25 8.75h2.5V836h2.5v20h-2.5v-10h-2.5v-1.25zm17.5-8.75h2.5v20h-2.5v-20zm-6.25 8.75h2.5V836h2.5v20h-2.5v-10H360v-1.25zm17.5-8.75h2.5v20h-2.5v-20zm-6.25 8.75h2.5V836h2.5v20h-2.5v-10h-2.5v-1.25zm11.25 7.5h10v1.25h-10v-1.25zm11.25 0h10v1.25h-10v-1.25zm11.25 0h10v1.25h-10v-1.25zm11.25 0h10v1.25h-10v-1.25zm11.25 0h10v1.25h-10v-1.25zM445 836h2.5v20H445v-20zm-6.25 8.75h2.5V836h2.5v20h-2.5v-10h-2.5v-1.25zm17.5-8.75h2.5v20h-2.5v-20zm-6.25 8.75h2.5V836h2.5v20h-2.5v-10H450v-1.25zM0 874.25h10v1.25H0v-1.25zm11.25 0h10v1.25h-10v-1.25zm11.25 0h10v1.25h-10v-1.25zm11.25 0h10v1.25h-10v-1.25zm11.25 0h10v1.25H45v-1.25zm11.25 0h10v1.25h-10v-1.25zm11.25 0h10v1.25h-10v-1.25zm11.25 0h10v1.25h-10v-1.25zm11.25 0h10v1.25H90v-1.25zM107.5 858h2.5v20h-2.5v-20zm-6.25 8.75h2.5V858h2.5v20h-2.5v-10h-2.5v-1.25zm17.5-8.75h2.5v20h-2.5v-20zm-6.25 8.75h2.5V858h2.5v20H115v-10h-2.5v-1.25zm11.25 7.5h10v1.25h-10v-1.25zm11.25 0h10v1.25h-10v-1.25zm11.25 0h10v1.25h-10v-1.25zm17.5-16.25h2.5v20h-2.5v-20zm-6.25 8.75h2.5V858h2.5v20H160v-10h-2.5v-1.25zM175 858h2.5v20H175v-20zm-6.25 8.75h2.5V858h2.5v20h-2.5v-10h-2.5v-1.25zm17.5-8.75h2.5v20h-2.5v-20zm-6.25 8.75h2.5V858h2.5v20h-2.5v-10H180v-1.25zm17.5-8.75h2.5v20h-2.5v-20zm-6.25 8.75h2.5V858h2.5v20h-2.5v-10h-2.5v-1.25zm17.5-8.75h2.5v20h-2.5v-20zm-6.25 8.75h2.5V858h2.5v20H205v-10h-2.5v-1.25zM220 858h2.5v20H220v-20zm-6.25 8.75h2.5V858h2.5v20h-2.5v-10h-2.5v-1.25zm17.5-8.75h2.5v20h-2.5v-20zm-6.25 8.75h2.5V858h2.5v20h-2.5v-10H225v-1.25zm17.5-8.75h2.5v20h-2.5v-20zm-6.25 8.75h2.5V858h2.5v20h-2.5v-10h-2.5v-1.25zm17.5-8.75h2.5v20h-2.5v-20zm-6.25 8.75h2.5V858h2.5v20H250v-10h-2.5v-1.25zM265 858h2.5v20H265v-20zm-6.25 8.75h2.5V858h2.5v20h-2.5v-10h-2.5v-1.25zm17.5-8.75h2.5v20h-2.5v-20zm-6.25 8.75h2.5V858h2.5v20h-2.5v-10H270v-1.25zm17.5-8.75h2.5v20h-2.5v-20zm-6.25 8.75h2.5V858h2.5v20h-2.5v-10h-2.5v-1.25zm17.5-8.75h2.5v20h-2.5v-20zm-6.25 8.75h2.5V858h2.5v20H295v-10h-2.5v-1.25zM310 858h2.5v20H310v-20zm-6.25 8.75h2.5V858h2.5v20h-2.5v-10h-2.5v-1.25zm17.5-8.75h2.5v20h-2.5v-20zm-6.25 8.75h2.5V858h2.5v20h-2.5v-10H315v-1.25zm17.5-8.75h2.5v20h-2.5v-20zm-6.25 8.75h2.5V858h2.5v20h-2.5v-10h-2.5v-1.25zm17.5-8.75h2.5v20h-2.5v-20zm-6.25 8.75h2.5V858h2.5v20H340v-10h-2.5v-1.25zM355 858h2.5v20H355v-20zm-6.25 8.75h2.5V858h2.5v20h-2.5v-10h-2.5v-1.25zm17.5-8.75h2.5v20h-2.5v-20zm-6.25 8.75h2.5V858h2.5v20h-2.5v-10H360v-1.25zm17.5-8.75h2.5v20h-2.5v-20zm-6.25 8.75h2.5V858h2.5v20h-2.5v-10h-2.5v-1.25zm17.5-8.75h2.5v20h-2.5v-20zm-6.25 8.75h2.5V858h2.5v20H385v-10h-2.5v-1.25zM400 858h2.5v20H400v-20zm-6.25 8.75h2.5V858h2.5v20h-2.5v-10h-2.5v-1.25zm11.25 7.5h10v1.25h-10v-1.25zm11.25 0h10v1.25h-10v-1.25zm11.25 0h10v1.25h-10v-1.25zm11.25 0h10v1.25h-10v-1.25zm17.5-16.25h2.5v20h-2.5v-20zm-6.25 8.75h2.5V858h2.5v20h-2.5v-10H450v-1.25zm17.5-8.75h2.5v20h-2.5v-20zm-6.25 8.75h2.5V858h2.5v20h-2.5v-10h-2.5v-1.25zM0 896.25h10v1.25H0v-1.25zm11.25 0h10v1.25h-10v-1.25zm11.25 0h10v1.25h-10v-1.25zm11.25 0h10v1.25h-10v-1.25zm11.25 0h10v1.25H45v-1.25zm11.25 0h10v1.25h-10v-1.25zm11.25 0h10v1.25h-10v-1.25zm11.25 0h10v1.25h-10v-1.25zM96.25 880h2.5v20h-2.5v-20zM90 888.75h2.5V880H95v20h-2.5v-10H90v-1.25zm17.5-8.75h2.5v20h-2.5v-20zm-6.25 8.75h2.5V880h2.5v20h-2.5v-10h-2.5v-1.25zm11.25 7.5h10v1.25h-10v-1.25zm11.25 0h10v1.25h-10v-1.25zm11.25 0h10v1.25h-10v-1.25zm11.25 0h10v1.25h-10v-1.25zm11.25 0h10v1.25h-10v-1.25zm11.25 0h10v1.25h-10v-1.25zm11.25 0h10v1.25h-10v-1.25zM197.5 880h2.5v20h-2.5v-20zm-6.25 8.75h2.5V880h2.5v20h-2.5v-10h-2.5v-1.25zm17.5-8.75h2.5v20h-2.5v-20zm-6.25 8.75h2.5V880h2.5v20H205v-10h-2.5v-1.25zM220 880h2.5v20H220v-20zm-6.25 8.75h2.5V880h2.5v20h-2.5v-10h-2.5v-1.25zm17.5-8.75h2.5v20h-2.5v-20zm-6.25 8.75h2.5V880h2.5v20h-2.5v-10H225v-1.25zm17.5-8.75h2.5v20h-2.5v-20zm-6.25 8.75h2.5V880h2.5v20h-2.5v-10h-2.5v-1.25zm17.5-8.75h2.5v20h-2.5v-20zm-6.25 8.75h2.5V880h2.5v20H250v-10h-2.5v-1.25zM265 880h2.5v20H265v-20zm-6.25 8.75h2.5V880h2.5v20h-2.5v-10h-2.5v-1.25zm17.5-8.75h2.5v20h-2.5v-20zm-6.25 8.75h2.5V880h2.5v20h-2.5v-10H270v-1.25zm17.5-8.75h2.5v20h-2.5v-20zm-6.25 8.75h2.5V880h2.5v20h-2.5v-10h-2.5v-1.25zm17.5-8.75h2.5v20h-2.5v-20zm-6.25 8.75h2.5V880h2.5v20H295v-10h-2.5v-1.25zM310 880h2.5v20H310v-20zm-6.25 8.75h2.5V880h2.5v20h-2.5v-10h-2.5v-1.25zm17.5-8.75h2.5v20h-2.5v-20zm-6.25 8.75h2.5V880h2.5v20h-2.5v-10H315v-1.25zm17.5-8.75h2.5v20h-2.5v-20zm-6.25 8.75h2.5V880h2.5v20h-2.5v-10h-2.5v-1.25zm17.5-8.75h2.5v20h-2.5v-20zm-6.25 8.75h2.5V880h2.5v20H340v-10h-2.5v-1.25zM355 880h2.5v20H355v-20zm-6.25 8.75h2.5V880h2.5v20h-2.5v-10h-2.5v-1.25zm17.5-8.75h2.5v20h-2.5v-20zm-6.25 8.75h2.5V880h2.5v20h-2.5v-10H360v-1.25zm17.5-8.75h2.5v20h-2.5v-20zm-6.25 8.75h2.5V880h2.5v20h-2.5v-10h-2.5v-1.25zm17.5-8.75h2.5v20h-2.5v-20zm-6.25 8.75h2.5V880h2.5v20H385v-10h-2.5v-1.25zM400 880h2.5v20H400v-20zm-6.25 8.75h2.5V880h2.5v20h-2.5v-10h-2.5v-1.25zm11.25 7.5h10v1.25h-10v-1.25zm11.25 0h10v1.25h-10v-1.25zm11.25 0h10v1.25h-10v-1.25zm11.25 0h10v1.25h-10v-1.25zm11.25 0h10v1.25h-10v-1.25zM467.5 880h2.5v20h-2.5v-20zm-6.25 8.75h2.5V880h2.5v20h-2.5v-10h-2.5v-1.25zM6.25 902h2.5v20h-2.5v-20zM0 910.75h2.5V902H5v20H2.5v-10H0v-1.25zm0 29.5h10v1.25H0v-1.25zm11.25 0h10v1.25h-10v-1.25zm11.25 0h10v1.25h-10v-1.25zm11.25 0h10v1.25h-10v-1.25zm11.25 0h10v1.25H45v-1.25zm11.25 0h10v1.25h-10v-1.25zm11.25 0h10v1.25h-10v-1.25zM85 924h2.5v20H85v-20zm-6.25 8.75h2.5V924h2.5v20h-2.5v-10h-2.5v-1.25zm11.25 7.5h10v1.25H90v-1.25zm11.25 0h10v1.25h-10v-1.25zm11.25 0h10v1.25h-10v-1.25zm11.25 0h10v1.25h-10v-1.25zm11.25 0h10v1.25h-10v-1.25zm11.25 0h10v1.25h-10v-1.25zm11.25 0h10v1.25h-10v-1.25zm11.25 0h10v1.25h-10v-1.25zm11.25 0h10v1.25h-10v-1.25zM197.5 924h2.5v20h-2.5v-20zm-6.25 8.75h2.5V924h2.5v20h-2.5v-10h-2.5v-1.25zm17.5-8.75h2.5v20h-2.5v-20zm-6.25 8.75h2.5V924h2.5v20H205v-10h-2.5v-1.25zM220 924h2.5v20H220v-20zm-6.25 8.75h2.5V924h2.5v20h-2.5v-10h-2.5v-1.25zm17.5-8.75h2.5v20h-2.5v-20zm-6.25 8.75h2.5V924h2.5v20h-2.5v-10H225v-1.25zm17.5-8.75h2.5v20h-2.5v-20zm-6.25 8.75h2.5V924h2.5v20h-2.5v-10h-2.5v-1.25zm17.5-8.75h2.5v20h-2.5v-20zm-6.25 8.75h2.5V924h2.5v20H250v-10h-2.5v-1.25zM265 924h2.5v20H265v-20zm-6.25 8.75h2.5V924h2.5v20h-2.5v-10h-2.5v-1.25zm17.5-8.75h2.5v20h-2.5v-20zm-6.25 8.75h2.5V924h2.5v20h-2.5v-10H270v-1.25zm17.5-8.75h2.5v20h-2.5v-20zm-6.25 8.75h2.5V924h2.5v20h-2.5v-10h-2.5v-1.25zm17.5-8.75h2.5v20h-2.5v-20zm-6.25 8.75h2.5V924h2.5v20H295v-10h-2.5v-1.25zM310 924h2.5v20H310v-20zm-6.25 8.75h2.5V924h2.5v20h-2.5v-10h-2.5v-1.25zm17.5-8.75h2.5v20h-2.5v-20zm-6.25 8.75h2.5V924h2.5v20h-2.5v-10H315v-1.25zm17.5-8.75h2.5v20h-2.5v-20zm-6.25 8.75h2.5V924h2.5v20h-2.5v-10h-2.5v-1.25zm17.5-8.75h2.5v20h-2.5v-20zm-6.25 8.75h2.5V924h2.5v20H340v-10h-2.5v-1.25zM355 924h2.5v20H355v-20zm-6.25 8.75h2.5V924h2.5v20h-2.5v-10h-2.5v-1.25zm17.5-8.75h2.5v20h-2.5v-20zm-6.25 8.75h2.5V924h2.5v20h-2.5v-10H360v-1.25zm17.5-8.75h2.5v20h-2.5v-20zm-6.25 8.75h2.5V924h2.5v20h-2.5v-10h-2.5v-1.25zm17.5-8.75h2.5v20h-2.5v-20zm-6.25 8.75h2.5V924h2.5v20H385v-10h-2.5v-1.25zM400 924h2.5v20H400v-20zm-6.25 8.75h2.5V924h2.5v20h-2.5v-10h-2.5v-1.25zm17.5-8.75h2.5v20h-2.5v-20zm-6.25 8.75h2.5V924h2.5v20h-2.5v-10H405v-1.25zm17.5-8.75h2.5v20h-2.5v-20zm-6.25 8.75h2.5V924h2.5v20h-2.5v-10h-2.5v-1.25zm11.25 7.5h10v1.25h-10v-1.25zm11.25 0h10v1.25h-10v-1.25zm11.25 0h10v1.25h-10v-1.25zm11.25 0h10v1.25h-10v-1.25zM6.25 946h2.5v20h-2.5v-20zM0 954.75h2.5V946H5v20H2.5v-10H0v-1.25zM17.5 946H20v20h-2.5v-20zm-6.25 8.75h2.5V946h2.5v20h-2.5v-10h-2.5v-1.25zM0 984.25h10v1.25H0v-1.25zm11.25 0h10v1.25h-10v-1.25zm11.25 0h10v1.25h-10v-1.25zm11.25 0h10v1.25h-10v-1.25zm11.25 0h10v1.25H45v-1.25zM62.5 968H65v20h-2.5v-20zm-6.25 8.75h2.5V968h2.5v20h-2.5v-10h-2.5v-1.25zm17.5-8.75h2.5v20h-2.5v-20zm-6.25 8.75H70V968h2.5v20H70v-10h-2.5v-1.25zm11.25 7.5h10v1.25h-10v-1.25zm11.25 0h10v1.25H90v-1.25zm11.25 0h10v1.25h-10v-1.25zm11.25 0h10v1.25h-10v-1.25zm11.25 0h10v1.25h-10v-1.25zm11.25 0h10v1.25h-10v-1.25zm11.25 0h10v1.25h-10v-1.25zm11.25 0h10v1.25h-10v-1.25zm11.25 0h10v1.25h-10v-1.25zm11.25 0h10v1.25h-10v-1.25zm11.25 0h10v1.25h-10v-1.25zm11.25 0h10v1.25h-10v-1.25zm11.25 0h10v1.25h-10v-1.25zm17.5-16.25h2.5v20h-2.5v-20zm-6.25 8.75h2.5V968h2.5v20h-2.5v-10H225v-1.25zm17.5-8.75h2.5v20h-2.5v-20zm-6.25 8.75h2.5V968h2.5v20h-2.5v-10h-2.5v-1.25zm17.5-8.75h2.5v20h-2.5v-20zm-6.25 8.75h2.5V968h2.5v20H250v-10h-2.5v-1.25zM265 968h2.5v20H265v-20zm-6.25 8.75h2.5V968h2.5v20h-2.5v-10h-2.5v-1.25zm17.5-8.75h2.5v20h-2.5v-20zm-6.25 8.75h2.5V968h2.5v20h-2.5v-10H270v-1.25zm17.5-8.75h2.5v20h-2.5v-20zm-6.25 8.75h2.5V968h2.5v20h-2.5v-10h-2.5v-1.25zm17.5-8.75h2.5v20h-2.5v-20zm-6.25 8.75h2.5V968h2.5v20H295v-10h-2.5v-1.25zM310 968h2.5v20H310v-20zm-6.25 8.75h2.5V968h2.5v20h-2.5v-10h-2.5v-1.25zm17.5-8.75h2.5v20h-2.5v-20zm-6.25 8.75h2.5V968h2.5v20h-2.5v-10H315v-1.25zm17.5-8.75h2.5v20h-2.5v-20zm-6.25 8.75h2.5V968h2.5v20h-2.5v-10h-2.5v-1.25zm17.5-8.75h2.5v20h-2.5v-20zm-6.25 8.75h2.5V968h2.5v20H340v-10h-2.5v-1.25zM355 968h2.5v20H355v-20zm-6.25 8.75h2.5V968h2.5v20h-2.5v-10h-2.5v-1.25zm17.5-8.75h2.5v20h-2.5v-20zm-6.25 8.75h2.5V968h2.5v20h-2.5v-10H360v-1.25zm17.5-8.75h2.5v20h-2.5v-20zm-6.25 8.75h2.5V968h2.5v20h-2.5v-10h-2.5v-1.25zm17.5-8.75h2.5v20h-2.5v-20zm-6.25 8.75h2.5V968h2.5v20H385v-10h-2.5v-1.25zM400 968h2.5v20H400v-20zm-6.25 8.75h2.5V968h2.5v20h-2.5v-10h-2.5v-1.25zm17.5-8.75h2.5v20h-2.5v-20zm-6.25 8.75h2.5V968h2.5v20h-2.5v-10H405v-1.25zm17.5-8.75h2.5v20h-2.5v-20zm-6.25 8.75h2.5V968h2.5v20h-2.5v-10h-2.5v-1.25zm17.5-8.75h2.5v20h-2.5v-20zm-6.25 8.75h2.5V968h2.5v20H430v-10h-2.5v-1.25zm11.25 7.5h10v1.25h-10v-1.25zm11.25 0h10v1.25h-10v-1.25zm11.25 0h10v1.25h-10v-1.25zM0 1006.25h10v1.25H0v-1.25zM17.5 990H20v20h-2.5v-20zm-6.25 8.75h2.5V990h2.5v20h-2.5v-10h-2.5v-1.25zm17.5-8.75h2.5v20h-2.5v-20zm-6.25 8.75H25V990h2.5v20H25v-10h-2.5v-1.25zM40 990h2.5v20H40v-20zm-6.25 8.75h2.5V990h2.5v20h-2.5v-10h-2.5v-1.25zM0 1028.25h10v1.25H0v-1.25zm11.25 0h10v1.25h-10v-1.25zm11.25 0h10v1.25h-10v-1.25zm11.25 0h10v1.25h-10v-1.25zm17.5-16.25h2.5v20h-2.5v-20zm-6.25 8.75h2.5V1012H50v20h-2.5v-10H45v-1.25zm17.5-8.75H65v20h-2.5v-20zm-6.25 8.75h2.5V1012h2.5v20h-2.5v-10h-2.5v-1.25zm11.25 7.5h10v1.25h-10v-1.25zm11.25 0h10v1.25h-10v-1.25zm11.25 0h10v1.25H90v-1.25zm11.25 0h10v1.25h-10v-1.25zm11.25 0h10v1.25h-10v-1.25zm11.25 0h10v1.25h-10v-1.25zm11.25 0h10v1.25h-10v-1.25zm11.25 0h10v1.25h-10v-1.25zm11.25 0h10v1.25h-10v-1.25zm11.25 0h10v1.25h-10v-1.25zm11.25 0h10v1.25h-10v-1.25zm11.25 0h10v1.25h-10v-1.25zm11.25 0h10v1.25h-10v-1.25zm11.25 0h10v1.25h-10v-1.25zm11.25 0h10v1.25h-10v-1.25zm11.25 0h10v1.25h-10v-1.25zm11.25 0h10v1.25h-10v-1.25zM265 1012h2.5v20H265v-20zm-6.25 8.75h2.5V1012h2.5v20h-2.5v-10h-2.5v-1.25zm17.5-8.75h2.5v20h-2.5v-20zm-6.25 8.75h2.5V1012h2.5v20h-2.5v-10H270v-1.25zm17.5-8.75h2.5v20h-2.5v-20zm-6.25 8.75h2.5V1012h2.5v20h-2.5v-10h-2.5v-1.25zm17.5-8.75h2.5v20h-2.5v-20zm-6.25 8.75h2.5V1012h2.5v20H295v-10h-2.5v-1.25zM310 1012h2.5v20H310v-20zm-6.25 8.75h2.5V1012h2.5v20h-2.5v-10h-2.5v-1.25zm17.5-8.75h2.5v20h-2.5v-20zm-6.25 8.75h2.5V1012h2.5v20h-2.5v-10H315v-1.25zm17.5-8.75h2.5v20h-2.5v-20zm-6.25 8.75h2.5V1012h2.5v20h-2.5v-10h-2.5v-1.25zm17.5-8.75h2.5v20h-2.5v-20zm-6.25 8.75h2.5V1012h2.5v20H340v-10h-2.5v-1.25zM355 1012h2.5v20H355v-20zm-6.25 8.75h2.5V1012h2.5v20h-2.5v-10h-2.5v-1.25zm17.5-8.75h2.5v20h-2.5v-20zm-6.25 8.75h2.5V1012h2.5v20h-2.5v-10H360v-1.25zm17.5-8.75h2.5v20h-2.5v-20zm-6.25 8.75h2.5V1012h2.5v20h-2.5v-10h-2.5v-1.25zm17.5-8.75h2.5v20h-2.5v-20zm-6.25 8.75h2.5V1012h2.5v20H385v-10h-2.5v-1.25zM400 1012h2.5v20H400v-20zm-6.25 8.75h2.5V1012h2.5v20h-2.5v-10h-2.5v-1.25zm17.5-8.75h2.5v20h-2.5v-20zm-6.25 8.75h2.5V1012h2.5v20h-2.5v-10H405v-1.25zm17.5-8.75h2.5v20h-2.5v-20zm-6.25 8.75h2.5V1012h2.5v20h-2.5v-10h-2.5v-1.25zm17.5-8.75h2.5v20h-2.5v-20zm-6.25 8.75h2.5V1012h2.5v20H430v-10h-2.5v-1.25zM445 1012h2.5v20H445v-20zm-6.25 8.75h2.5V1012h2.5v20h-2.5v-10h-2.5v-1.25zm17.5-8.75h2.5v20h-2.5v-20zm-6.25 8.75h2.5V1012h2.5v20h-2.5v-10H450v-1.25zm17.5-8.75h2.5v20h-2.5v-20zm-6.25 8.75h2.5V1012h2.5v20h-2.5v-10h-2.5v-1.25zM0 1050.25h10v1.25H0v-1.25zm11.25 0h10v1.25h-10v-1.25zm11.25 0h10v1.25h-10v-1.25zM40 1034h2.5v20H40v-20zm-6.25 8.75h2.5V1034h2.5v20h-2.5v-10h-2.5v-1.25zm17.5-8.75h2.5v20h-2.5v-20zm-6.25 8.75h2.5V1034H50v20h-2.5v-10H45v-1.25zm-45 29.5h10v1.25H0v-1.25zm11.25 0h10v1.25h-10v-1.25zm11.25 0h10v1.25h-10v-1.25zm11.25 0h10v1.25h-10v-1.25zm17.5-16.25h2.5v20h-2.5v-20zm-6.25 8.75h2.5V1056H50v20h-2.5v-10H45v-1.25zm11.25 7.5h10v1.25h-10v-1.25zm11.25 0h10v1.25h-10v-1.25zm11.25 0h10v1.25h-10v-1.25zm11.25 0h10v1.25H90v-1.25zm11.25 0h10v1.25h-10v-1.25zm11.25 0h10v1.25h-10v-1.25zm11.25 0h10v1.25h-10v-1.25zm11.25 0h10v1.25h-10v-1.25zm11.25 0h10v1.25h-10v-1.25zm11.25 0h10v1.25h-10v-1.25zm11.25 0h10v1.25h-10v-1.25zm11.25 0h10v1.25h-10v-1.25zm11.25 0h10v1.25h-10v-1.25zm11.25 0h10v1.25h-10v-1.25zm11.25 0h10v1.25h-10v-1.25zm11.25 0h10v1.25h-10v-1.25zm11.25 0h10v1.25h-10v-1.25zm11.25 0h10v1.25h-10v-1.25zm11.25 0h10v1.25h-10v-1.25zm11.25 0h10v1.25h-10v-1.25zm17.5-16.25h2.5v20h-2.5v-20zm-6.25 8.75h2.5V1056h2.5v20h-2.5v-10h-2.5v-1.25zm17.5-8.75h2.5v20h-2.5v-20zm-6.25 8.75h2.5V1056h2.5v20H295v-10h-2.5v-1.25zM310 1056h2.5v20H310v-20zm-6.25 8.75h2.5V1056h2.5v20h-2.5v-10h-2.5v-1.25zm17.5-8.75h2.5v20h-2.5v-20zm-6.25 8.75h2.5V1056h2.5v20h-2.5v-10H315v-1.25zm17.5-8.75h2.5v20h-2.5v-20zm-6.25 8.75h2.5V1056h2.5v20h-2.5v-10h-2.5v-1.25zm17.5-8.75h2.5v20h-2.5v-20zm-6.25 8.75h2.5V1056h2.5v20H340v-10h-2.5v-1.25zM355 1056h2.5v20H355v-20zm-6.25 8.75h2.5V1056h2.5v20h-2.5v-10h-2.5v-1.25zm17.5-8.75h2.5v20h-2.5v-20zm-6.25 8.75h2.5V1056h2.5v20h-2.5v-10H360v-1.25zm17.5-8.75h2.5v20h-2.5v-20zm-6.25 8.75h2.5V1056h2.5v20h-2.5v-10h-2.5v-1.25zm17.5-8.75h2.5v20h-2.5v-20zm-6.25 8.75h2.5V1056h2.5v20H385v-10h-2.5v-1.25zM400 1056h2.5v20H400v-20zm-6.25 8.75h2.5V1056h2.5v20h-2.5v-10h-2.5v-1.25zm17.5-8.75h2.5v20h-2.5v-20zm-6.25 8.75h2.5V1056h2.5v20h-2.5v-10H405v-1.25zm17.5-8.75h2.5v20h-2.5v-20zm-6.25 8.75h2.5V1056h2.5v20h-2.5v-10h-2.5v-1.25zm17.5-8.75h2.5v20h-2.5v-20zm-6.25 8.75h2.5V1056h2.5v20H430v-10h-2.5v-1.25zM445 1056h2.5v20H445v-20zm-6.25 8.75h2.5V1056h2.5v20h-2.5v-10h-2.5v-1.25zm17.5-8.75h2.5v20h-2.5v-20zm-6.25 8.75h2.5V1056h2.5v20h-2.5v-10H450v-1.25zm17.5-8.75h2.5v20h-2.5v-20zm-6.25 8.75h2.5V1056h2.5v20h-2.5v-10h-2.5v-1.25zM6.25 1078h2.5v20h-2.5v-20zM0 1086.75h2.5V1078H5v20H2.5v-10H0v-1.25zm17.5-8.75H20v20h-2.5v-20zm-6.25 8.75h2.5V1078h2.5v20h-2.5v-10h-2.5v-1.25zm17.5-8.75h2.5v20h-2.5v-20zm-6.25 8.75H25V1078h2.5v20H25v-10h-2.5v-1.25zm11.25 7.5h10v1.25h-10v-1.25zm11.25 0h10v1.25H45v-1.25zM62.5 1078H65v20h-2.5v-20zm-6.25 8.75h2.5V1078h2.5v20h-2.5v-10h-2.5v-1.25zm17.5-8.75h2.5v20h-2.5v-20zm-6.25 8.75H70V1078h2.5v20H70v-10h-2.5v-1.25zM0 1116.25h10v1.25H0v-1.25zm11.25 0h10v1.25h-10v-1.25zm11.25 0h10v1.25h-10v-1.25zm11.25 0h10v1.25h-10v-1.25zm17.5-16.25h2.5v20h-2.5v-20zm-6.25 8.75h2.5V1100H50v20h-2.5v-10H45v-1.25zm11.25 7.5h10v1.25h-10v-1.25zm11.25 0h10v1.25h-10v-1.25zm11.25 0h10v1.25h-10v-1.25zm11.25 0h10v1.25H90v-1.25zm11.25 0h10v1.25h-10v-1.25zm11.25 0h10v1.25h-10v-1.25zm11.25 0h10v1.25h-10v-1.25zm11.25 0h10v1.25h-10v-1.25zm11.25 0h10v1.25h-10v-1.25zm11.25 0h10v1.25h-10v-1.25zm11.25 0h10v1.25h-10v-1.25zm11.25 0h10v1.25h-10v-1.25zm11.25 0h10v1.25h-10v-1.25zm11.25 0h10v1.25h-10v-1.25zm11.25 0h10v1.25h-10v-1.25zm11.25 0h10v1.25h-10v-1.25zm11.25 0h10v1.25h-10v-1.25zm11.25 0h10v1.25h-10v-1.25zm11.25 0h10v1.25h-10v-1.25zm11.25 0h10v1.25h-10v-1.25zm11.25 0h10v1.25h-10v-1.25zm11.25 0h10v1.25h-10v-1.25zm11.25 0h10v1.25h-10v-1.25zm11.25 0h10v1.25h-10v-1.25zm17.5-16.25h2.5v20h-2.5v-20zm-6.25 8.75h2.5V1100h2.5v20h-2.5v-10h-2.5v-1.25zm17.5-8.75h2.5v20h-2.5v-20zm-6.25 8.75h2.5V1100h2.5v20H340v-10h-2.5v-1.25zM355 1100h2.5v20H355v-20zm-6.25 8.75h2.5V1100h2.5v20h-2.5v-10h-2.5v-1.25zm17.5-8.75h2.5v20h-2.5v-20zm-6.25 8.75h2.5V1100h2.5v20h-2.5v-10H360v-1.25zm17.5-8.75h2.5v20h-2.5v-20zm-6.25 8.75h2.5V1100h2.5v20h-2.5v-10h-2.5v-1.25zm17.5-8.75h2.5v20h-2.5v-20zm-6.25 8.75h2.5V1100h2.5v20H385v-10h-2.5v-1.25zM400 1100h2.5v20H400v-20zm-6.25 8.75h2.5V1100h2.5v20h-2.5v-10h-2.5v-1.25zm17.5-8.75h2.5v20h-2.5v-20zm-6.25 8.75h2.5V1100h2.5v20h-2.5v-10H405v-1.25zm17.5-8.75h2.5v20h-2.5v-20zm-6.25 8.75h2.5V1100h2.5v20h-2.5v-10h-2.5v-1.25zm17.5-8.75h2.5v20h-2.5v-20zm-6.25 8.75h2.5V1100h2.5v20H430v-10h-2.5v-1.25zM445 1100h2.5v20H445v-20zm-6.25 8.75h2.5V1100h2.5v20h-2.5v-10h-2.5v-1.25zm17.5-8.75h2.5v20h-2.5v-20zm-6.25 8.75h2.5V1100h2.5v20h-2.5v-10H450v-1.25zm17.5-8.75h2.5v20h-2.5v-20zm-6.25 8.75h2.5V1100h2.5v20h-2.5v-10h-2.5v-1.25zM6.25 1122h2.5v20h-2.5v-20zM0 1130.75h2.5V1122H5v20H2.5v-10H0v-1.25zm17.5-8.75H20v20h-2.5v-20zm-6.25 8.75h2.5V1122h2.5v20h-2.5v-10h-2.5v-1.25zm17.5-8.75h2.5v20h-2.5v-20zm-6.25 8.75H25V1122h2.5v20H25v-10h-2.5v-1.25zm11.25 7.5h10v1.25h-10v-1.25zm11.25 0h10v1.25H45v-1.25zm11.25 0h10v1.25h-10v-1.25zm11.25 0h10v1.25h-10v-1.25zM85 1122h2.5v20H85v-20zm-6.25 8.75h2.5V1122h2.5v20h-2.5v-10h-2.5v-1.25zM0 1160.25h10v1.25H0v-1.25zm11.25 0h10v1.25h-10v-1.25zm11.25 0h10v1.25h-10v-1.25zm11.25 0h10v1.25h-10v-1.25zm11.25 0h10v1.25H45v-1.25zM62.5 1144H65v20h-2.5v-20zm-6.25 8.75h2.5V1144h2.5v20h-2.5v-10h-2.5v-1.25zm11.25 7.5h10v1.25h-10v-1.25zm11.25 0h10v1.25h-10v-1.25zm11.25 0h10v1.25H90v-1.25zm11.25 0h10v1.25h-10v-1.25zm11.25 0h10v1.25h-10v-1.25zm11.25 0h10v1.25h-10v-1.25zm11.25 0h10v1.25h-10v-1.25zm11.25 0h10v1.25h-10v-1.25zm11.25 0h10v1.25h-10v-1.25zm11.25 0h10v1.25h-10v-1.25zm11.25 0h10v1.25h-10v-1.25zm11.25 0h10v1.25h-10v-1.25zm11.25 0h10v1.25h-10v-1.25zm11.25 0h10v1.25h-10v-1.25zm11.25 0h10v1.25h-10v-1.25zm11.25 0h10v1.25h-10v-1.25zm11.25 0h10v1.25h-10v-1.25zm11.25 0h10v1.25h-10v-1.25zm11.25 0h10v1.25h-10v-1.25zm11.25 0h10v1.25h-10v-1.25zm11.25 0h10v1.25h-10v-1.25zm11.25 0h10v1.25h-10v-1.25zm11.25 0h10v1.25h-10v-1.25zm11.25 0h10v1.25h-10v-1.25zm11.25 0h10v1.25h-10v-1.25zM355 1144h2.5v20H355v-20zm-6.25 8.75h2.5V1144h2.5v20h-2.5v-10h-2.5v-1.25zm11.25 7.5h10v1.25h-10v-1.25zm11.25 0h10v1.25h-10v-1.25zm11.25 0h10v1.25h-10v-1.25zm11.25 0h10v1.25h-10v-1.25zm11.25 0h10v1.25h-10v-1.25zm17.5-16.25h2.5v20h-2.5v-20zm-6.25 8.75h2.5V1144h2.5v20h-2.5v-10h-2.5v-1.25zm17.5-8.75h2.5v20h-2.5v-20zm-6.25 8.75h2.5V1144h2.5v20H430v-10h-2.5v-1.25zM445 1144h2.5v20H445v-20zm-6.25 8.75h2.5V1144h2.5v20h-2.5v-10h-2.5v-1.25zm11.25 7.5h10v1.25h-10v-1.25zm17.5-16.25h2.5v20h-2.5v-20zm-6.25 8.75h2.5V1144h2.5v20h-2.5v-10h-2.5v-1.25zM6.25 1166h2.5v20h-2.5v-20zM0 1174.75h2.5V1166H5v20H2.5v-10H0v-1.25zm11.25 7.5h10v1.25h-10v-1.25zm11.25 0h10v1.25h-10v-1.25zM40 1166h2.5v20H40v-20zm-6.25 8.75h2.5V1166h2.5v20h-2.5v-10h-2.5v-1.25zm11.25 7.5h10v1.25H45v-1.25zm11.25 0h10v1.25h-10v-1.25zm11.25 0h10v1.25h-10v-1.25zM85 1166h2.5v20H85v-20zm-6.25 8.75h2.5V1166h2.5v20h-2.5v-10h-2.5v-1.25zM0 1204.25h10v1.25H0v-1.25zm11.25 0h10v1.25h-10v-1.25zm11.25 0h10v1.25h-10v-1.25zm11.25 0h10v1.25h-10v-1.25zm11.25 0h10v1.25H45v-1.25zM62.5 1188H65v20h-2.5v-20zm-6.25 8.75h2.5V1188h2.5v20h-2.5v-10h-2.5v-1.25zm17.5-8.75h2.5v20h-2.5v-20zm-6.25 8.75H70V1188h2.5v20H70v-10h-2.5v-1.25zm11.25 7.5h10v1.25h-10v-1.25zm11.25 0h10v1.25H90v-1.25zm11.25 0h10v1.25h-10v-1.25zm11.25 0h10v1.25h-10v-1.25zm11.25 0h10v1.25h-10v-1.25zm11.25 0h10v1.25h-10v-1.25zm11.25 0h10v1.25h-10v-1.25zm11.25 0h10v1.25h-10v-1.25zm11.25 0h10v1.25h-10v-1.25zm11.25 0h10v1.25h-10v-1.25zm11.25 0h10v1.25h-10v-1.25zm11.25 0h10v1.25h-10v-1.25zm11.25 0h10v1.25h-10v-1.25zm11.25 0h10v1.25h-10v-1.25zm11.25 0h10v1.25h-10v-1.25zm11.25 0h10v1.25h-10v-1.25zm11.25 0h10v1.25h-10v-1.25zm11.25 0h10v1.25h-10v-1.25zm11.25 0h10v1.25h-10v-1.25zm11.25 0h10v1.25h-10v-1.25zm11.25 0h10v1.25h-10v-1.25zm11.25 0h10v1.25h-10v-1.25zm11.25 0h10v1.25h-10v-1.25zm17.5-16.25h2.5v20h-2.5v-20zm-6.25 8.75h2.5V1188h2.5v20H340v-10h-2.5v-1.25zm11.25 7.5h10v1.25h-10v-1.25zm11.25 0h10v1.25h-10v-1.25zm11.25 0h10v1.25h-10v-1.25zm11.25 0h10v1.25h-10v-1.25zm11.25 0h10v1.25h-10v-1.25zm11.25 0h10v1.25h-10v-1.25zm11.25 0h10v1.25h-10v-1.25zm11.25 0h10v1.25h-10v-1.25zm11.25 0h10v1.25h-10v-1.25zm11.25 0h10v1.25h-10v-1.25zm17.5-16.25h2.5v20h-2.5v-20zm-6.25 8.75h2.5V1188h2.5v20h-2.5v-10h-2.5v-1.25zM6.25 1210h2.5v20h-2.5v-20zM0 1218.75h2.5V1210H5v20H2.5v-10H0v-1.25zm17.5-8.75H20v20h-2.5v-20zm-6.25 8.75h2.5V1210h2.5v20h-2.5v-10h-2.5v-1.25zm17.5-8.75h2.5v20h-2.5v-20zm-6.25 8.75H25V1210h2.5v20H25v-10h-2.5v-1.25zM40 1210h2.5v20H40v-20zm-6.25 8.75h2.5V1210h2.5v20h-2.5v-10h-2.5v-1.25zm17.5-8.75h2.5v20h-2.5v-20zm-6.25 8.75h2.5V1210H50v20h-2.5v-10H45v-1.25zm17.5-8.75H65v20h-2.5v-20zm-6.25 8.75h2.5V1210h2.5v20h-2.5v-10h-2.5v-1.25zM0 1248.25h10v1.25H0v-1.25zm11.25 0h10v1.25h-10v-1.25zm11.25 0h10v1.25h-10v-1.25zm11.25 0h10v1.25h-10v-1.25zm11.25 0h10v1.25H45v-1.25zm11.25 0h10v1.25h-10v-1.25zm11.25 0h10v1.25h-10v-1.25zM85 1232h2.5v20H85v-20zm-6.25 8.75h2.5V1232h2.5v20h-2.5v-10h-2.5v-1.25zm11.25 7.5h10v1.25H90v-1.25zm11.25 0h10v1.25h-10v-1.25zm11.25 0h10v1.25h-10v-1.25zm11.25 0h10v1.25h-10v-1.25zm11.25 0h10v1.25h-10v-1.25zm11.25 0h10v1.25h-10v-1.25zm11.25 0h10v1.25h-10v-1.25zm11.25 0h10v1.25h-10v-1.25zm11.25 0h10v1.25h-10v-1.25zm11.25 0h10v1.25h-10v-1.25zm11.25 0h10v1.25h-10v-1.25zm11.25 0h10v1.25h-10v-1.25zm11.25 0h10v1.25h-10v-1.25zm11.25 0h10v1.25h-10v-1.25zm11.25 0h10v1.25h-10v-1.25zm11.25 0h10v1.25h-10v-1.25zm11.25 0h10v1.25h-10v-1.25zm11.25 0h10v1.25h-10v-1.25zm11.25 0h10v1.25h-10v-1.25zm11.25 0h10v1.25h-10v-1.25zm11.25 0h10v1.25h-10v-1.25zm11.25 0h10v1.25h-10v-1.25zm17.5-16.25h2.5v20h-2.5v-20zm-6.25 8.75h2.5V1232h2.5v20H340v-10h-2.5v-1.25zM0 1270.25h10v1.25H0v-1.25zm11.25 0h10v1.25h-10v-1.25zm11.25 0h10v1.25h-10v-1.25zm11.25 0h10v1.25h-10v-1.25zm11.25 0h10v1.25H45v-1.25zm11.25 0h10v1.25h-10v-1.25zm11.25 0h10v1.25h-10v-1.25zm11.25 0h10v1.25h-10v-1.25zm17.5-16.25h2.5v20h-2.5v-20zm-6.25 8.75h2.5V1254H95v20h-2.5v-10H90v-1.25zm17.5-8.75h2.5v20h-2.5v-20zm-6.25 8.75h2.5V1254h2.5v20h-2.5v-10h-2.5v-1.25zm11.25 7.5h10v1.25h-10v-1.25zm11.25 0h10v1.25h-10v-1.25zm11.25 0h10v1.25h-10v-1.25zm11.25 0h10v1.25h-10v-1.25zm11.25 0h10v1.25h-10v-1.25zm11.25 0h10v1.25h-10v-1.25zm11.25 0h10v1.25h-10v-1.25zm11.25 0h10v1.25h-10v-1.25zm11.25 0h10v1.25h-10v-1.25zm11.25 0h10v1.25h-10v-1.25zm11.25 0h10v1.25h-10v-1.25zm11.25 0h10v1.25h-10v-1.25zm11.25 0h10v1.25h-10v-1.25zm11.25 0h10v1.25h-10v-1.25zm11.25 0h10v1.25h-10v-1.25zm11.25 0h10v1.25h-10v-1.25zm11.25 0h10v1.25h-10v-1.25zm11.25 0h10v1.25h-10v-1.25zm11.25 0h10v1.25h-10v-1.25zm11.25 0h10v1.25h-10v-1.25zm11.25 0h10v1.25h-10v-1.25zM355 1254h2.5v20H355v-20zm-6.25 8.75h2.5V1254h2.5v20h-2.5v-10h-2.5v-1.25zM0 1292.25h10v1.25H0v-1.25zm11.25 0h10v1.25h-10v-1.25zm11.25 0h10v1.25h-10v-1.25zm11.25 0h10v1.25h-10v-1.25zm11.25 0h10v1.25H45v-1.25zm11.25 0h10v1.25h-10v-1.25zm11.25 0h10v1.25h-10v-1.25zm11.25 0h10v1.25h-10v-1.25zm11.25 0h10v1.25H90v-1.25zm17.5-16.25h2.5v20h-2.5v-20zm-6.25 8.75h2.5V1276h2.5v20h-2.5v-10h-2.5v-1.25zm17.5-8.75h2.5v20h-2.5v-20zm-6.25 8.75h2.5V1276h2.5v20H115v-10h-2.5v-1.25zm11.25 7.5h10v1.25h-10v-1.25zm11.25 0h10v1.25h-10v-1.25zm11.25 0h10v1.25h-10v-1.25zm11.25 0h10v1.25h-10v-1.25zm11.25 0h10v1.25h-10v-1.25zm11.25 0h10v1.25h-10v-1.25zm11.25 0h10v1.25h-10v-1.25zm11.25 0h10v1.25h-10v-1.25zm11.25 0h10v1.25h-10v-1.25zm11.25 0h10v1.25h-10v-1.25zm11.25 0h10v1.25h-10v-1.25zm11.25 0h10v1.25h-10v-1.25zm11.25 0h10v1.25h-10v-1.25zm11.25 0h10v1.25h-10v-1.25zm11.25 0h10v1.25h-10v-1.25zm11.25 0h10v1.25h-10v-1.25zm11.25 0h10v1.25h-10v-1.25zm11.25 0h10v1.25h-10v-1.25zm11.25 0h10v1.25h-10v-1.25zm11.25 0h10v1.25h-10v-1.25zm11.25 0h10v1.25h-10v-1.25zm17.5-16.25h2.5v20h-2.5v-20zm-6.25 8.75h2.5V1276h2.5v20h-2.5v-10H360v-1.25zm17.5-8.75h2.5v20h-2.5v-20zm-6.25 8.75h2.5V1276h2.5v20h-2.5v-10h-2.5v-1.25zM0 1314.25h10v1.25H0v-1.25zm11.25 0h10v1.25h-10v-1.25zm11.25 0h10v1.25h-10v-1.25zm11.25 0h10v1.25h-10v-1.25zm11.25 0h10v1.25H45v-1.25zm11.25 0h10v1.25h-10v-1.25zm11.25 0h10v1.25h-10v-1.25zm11.25 0h10v1.25h-10v-1.25zm11.25 0h10v1.25H90v-1.25zm11.25 0h10v1.25h-10v-1.25zm11.25 0h10v1.25h-10v-1.25zM130 1298h2.5v20H130v-20zm-6.25 8.75h2.5V1298h2.5v20h-2.5v-10h-2.5v-1.25zm17.5-8.75h2.5v20h-2.5v-20zm-6.25 8.75h2.5V1298h2.5v20h-2.5v-10H135v-1.25zm17.5-8.75h2.5v20h-2.5v-20zm-6.25 8.75h2.5V1298h2.5v20h-2.5v-10h-2.5v-1.25zm17.5-8.75h2.5v20h-2.5v-20zm-6.25 8.75h2.5V1298h2.5v20H160v-10h-2.5v-1.25zM175 1298h2.5v20H175v-20zm-6.25 8.75h2.5V1298h2.5v20h-2.5v-10h-2.5v-1.25zm17.5-8.75h2.5v20h-2.5v-20zm-6.25 8.75h2.5V1298h2.5v20h-2.5v-10H180v-1.25zm17.5-8.75h2.5v20h-2.5v-20zm-6.25 8.75h2.5V1298h2.5v20h-2.5v-10h-2.5v-1.25zm17.5-8.75h2.5v20h-2.5v-20zm-6.25 8.75h2.5V1298h2.5v20H205v-10h-2.5v-1.25zM220 1298h2.5v20H220v-20zm-6.25 8.75h2.5V1298h2.5v20h-2.5v-10h-2.5v-1.25zm17.5-8.75h2.5v20h-2.5v-20zm-6.25 8.75h2.5V1298h2.5v20h-2.5v-10H225v-1.25zm17.5-8.75h2.5v20h-2.5v-20zm-6.25 8.75h2.5V1298h2.5v20h-2.5v-10h-2.5v-1.25zm17.5-8.75h2.5v20h-2.5v-20zm-6.25 8.75h2.5V1298h2.5v20H250v-10h-2.5v-1.25zM265 1298h2.5v20H265v-20zm-6.25 8.75h2.5V1298h2.5v20h-2.5v-10h-2.5v-1.25zm17.5-8.75h2.5v20h-2.5v-20zm-6.25 8.75h2.5V1298h2.5v20h-2.5v-10H270v-1.25zm17.5-8.75h2.5v20h-2.5v-20zm-6.25 8.75h2.5V1298h2.5v20h-2.5v-10h-2.5v-1.25zm17.5-8.75h2.5v20h-2.5v-20zm-6.25 8.75h2.5V1298h2.5v20H295v-10h-2.5v-1.25zM310 1298h2.5v20H310v-20zm-6.25 8.75h2.5V1298h2.5v20h-2.5v-10h-2.5v-1.25zm17.5-8.75h2.5v20h-2.5v-20zm-6.25 8.75h2.5V1298h2.5v20h-2.5v-10H315v-1.25zm17.5-8.75h2.5v20h-2.5v-20zm-6.25 8.75h2.5V1298h2.5v20h-2.5v-10h-2.5v-1.25zm17.5-8.75h2.5v20h-2.5v-20zm-6.25 8.75h2.5V1298h2.5v20H340v-10h-2.5v-1.25zM355 1298h2.5v20H355v-20zm-6.25 8.75h2.5V1298h2.5v20h-2.5v-10h-2.5v-1.25zm17.5-8.75h2.5v20h-2.5v-20zm-6.25 8.75h2.5V1298h2.5v20h-2.5v-10H360v-1.25zm17.5-8.75h2.5v20h-2.5v-20zm-6.25 8.75h2.5V1298h2.5v20h-2.5v-10h-2.5v-1.25zm17.5-8.75h2.5v20h-2.5v-20zm-6.25 8.75h2.5V1298h2.5v20H385v-10h-2.5v-1.25z" fill="#00EDFF"/></svg>